<svg xmlns="http://www.w3.org/2000/svg" viewBox="0 0 1920 1080"><defs><style>.cls-1{fill:#fff;}.cls-2{fill:#020608;}.cls-3{fill:#d75595;}</style></defs><title>litinteractivemap</title><g id="Слой_4" data-name="Слой 4"><rect class="cls-1" width="1920" height="1080"/></g><g id="Слой_2" data-name="Слой 2"><path class="cls-1" d="M1240.61,668.48v208.1h-322c.94-1,1.81-2.09,2.82-3,4.5-4,4.51-4,2.75-10a2.89,2.89,0,0,1,0-.83,20.48,20.48,0,0,0,2.42-1.83c2.46-2.48,4.58-5.33,8.39-5.46,2.69-.1,4.46-1.82,5.41-5,.57-2,1.31-4.65,4.19-4.63,5.28,0,10.56-.16,15.84-.2.64,0,1.62.09,1.87.54,2,3.6,5,4,8.39,3.87s6.48,0,10,0c.85,7,4.06,9.89,10.36,8.25,3.26-.85,3.73-1.06,3.08-4.7a3.84,3.84,0,0,1,.91-2.87c2.41-2.19,5-4.13,7.43-6.09l-4.43-11.87c3.64-2.92,6.69-6,10.21-8,4.35-2.51,9.37-3.64,13.62-6.31,7.55-4.75,21.59.19,25.28,7.69,1,2,1.41,4.33,2.55,6.15.76,1.2,2.34,1.75,3.55,2.6a34.6,34.6,0,0,0,.66-3.49,11.09,11.09,0,0,0-.25-2.37c-.79-6.74,2.1-9.46,7.64-6.88,3.43,1.6,6.65,3.76,10.13,5.75,2.25-2.89,4.24-6.39,7-8.71s6.22-3.35,9.9-5.22c.72-1.91.36-3.85-2-5.88a11.27,11.27,0,0,1-3.07-6.38c-.41-2.84-1.48-4.53-3.79-5-2.77-.52-3.29-2.61-2.78-5s2.52-2.69,4.47-2.22c2.57.63,5.12,1.44,7.7,2,2.93.64,3.71-.48,3-3.71-.56-2.5-1.6-5.27-1.11-7.57.73-3.4.64-5.91-1.61-8.52-.89-1-1.62-3.55-1.11-4.49.64-1.19,2.59-1.6,4-2.09s3-.1,4.1-.91,2.66-2.87,2.45-4c-1.32-7.12-3-14.19-9.35-18.13a3.58,3.58,0,0,1-1.43-2.44c-.63-8.81-1.23-17.62-1.59-26.45-.1-2.22,1.15-3.8,3.55-3.59.56,0,1.17-.68,1.3-.76l-5.44-8c-1.76,1.26-3.94,3-6.28,4.42a14.43,14.43,0,0,1-5.45,2.25c-2.82.3-5.23.81-7.26,3.38-2.42,3.06-5.36,4.94-9,1.55-.07,7.39-.52,8-5.83,9-1.37,1.68-2.07,3.13-3.14,3.74-3.67,2.07-7.74,3.48-9.35,8.41-.66,2-1.85,4.12-1.79,6.14,0,1.71,1.56,3.37,2.11,4.45l-17.18,17.5c.89,2.28,1.6,4,2.26,5.82,1.52,4.16.28,6.64-3.61,7.18-2.82.39-5.64.89-8.47,1-4.16.22-8.24,0-12.06-2.5a14.91,14.91,0,0,0-6.7-2.54,69.88,69.88,0,0,0-25.44,2.66,2.86,2.86,0,0,0-2.49,3.08,47.18,47.18,0,0,1-1.07,7.39c-.77,3.68-3,5.38-6.29,4.86-2.08-.33-4.12-1-7-1.68-1.45,4.94-3.08,9.9-4.33,15-1.08,4.36-.65,9.37-4.93,12.14a4.68,4.68,0,0,0-1.35,2.61c-1.08,4.31-3.83,6.17-7.52,6.84-1.2.21-2.34.74-3.53,1-2.74.59-4.29,2.1-4.31,5.52,0,1.21-1.12,3.48-1.62,3.44-3.13-.25-3.56,2.41-4.39,4.6-2.47,6.49-6.24,11.64-12.44,13.52-4.22,1.28-7,4-9.46,7.82-1.86,2.87-2.06,5.68-1,9.75a62.08,62.08,0,0,1,5.12-4.17c1.58-1,3.34-2.42,5-2.46,4-.09,8.43,4.55,9.41,9a50.33,50.33,0,0,0,1.68,5.08H679.57V676.69a12.53,12.53,0,0,0,3.5,1c6.78-.11,13.55-.39,20.32-.59h5.1c-2.65,3-4.7,5-7.61,5.06a10.82,10.82,0,0,0-7.63,3.65,9.66,9.66,0,0,1-4.12,2.67c-4,1-6.23,4.11-5.83,8.68a4.35,4.35,0,0,0,.82,2c.78,1.1,1.7,2.08,2.71,3.3a13.62,13.62,0,0,1,3.51-2.57c1.18-.44,2.68.16,4,.3-.21,1.33-.39,2.65-.64,4a11.19,11.19,0,0,1-.58,1.59l16.46-1.52.1,1c-4.31.93-7.94,2.74-10.5,7.22-1.1,1.92-3.81,2.64-5.71,4a32.09,32.09,0,0,0-2.94,2.77c1.2.49,2.5,1.58,3.6,1.37,4.58-.86,9.13-2,13.62-3.28,2.92-.85,5.23,0,7.78,2l-4.89,1.89.87,4.21a7.77,7.77,0,0,0-1,.5c-1.21.81-3.47,1.74-3.41,2.44a20.62,20.62,0,0,0,2,6.21c.11.26,1.7.23,1.85-.1,2-4.33,5.53-2.88,8.63-3.2,3.4-.34,6.2.17,6.38,5a41.83,41.83,0,0,0,4.19,0c3-.33,6.46.44,7.78-4.17.19-.68,1.75-1.24,2.66-1.22,3.27.07,6.54.54,9.82.58,1.2,0,3.17-.35,3.5-1.18,1-2.66,3-2.62,4.57-2,2.58.94,3.86,0,4.56-2.58.64-2.37,1.84-2.08,3.2-.93s2.42,2.22,4,3.68c.39-2.34.66-4,.92-5.56a2.66,2.66,0,0,1,.64-.3,2.78,2.78,0,0,1,.91,0c3.78.64,7.14-.3,8.5-4.62,1.09-3.45,3-3.44,5.36-2.71a6.47,6.47,0,0,0,7.08-1.71c1.78-1.85,2.84-4.88,6.06-4.11.3.07,1-.6,1.1-1.05,1-4,4-4.12,6.8-5,3.59-1.14,6.37-3,6.55-8.13.06-1.77,1.89-4,3.42-5a9.69,9.69,0,0,1,5.57-1.26c6.58.13,13.14.67,19.72.77,1.53,0,3.61-.56,4.51-1.75,2.09-2.76,4.4-2.91,6.77-1.4,5,3.17,10.49,2,15.75,2.82,2.1.33,3.6-1.31,4.07-3.73.42-2.14.31-3.83-2-4.87-2.59-1.17-2.82-3.83-1.74-6.33,1.49-3.47,3.24-6.8,5-10.1,2.16-4,4.34-8.11,3.66-13.07a18.52,18.52,0,0,1,4.39-14.74c3.75-4.48,4.81-9.6,4.79-15.3,0-10.87,0-21.78-3.6-32.31a14.52,14.52,0,0,1,2.31-.94c1.88-.4,2.21-1.83,1.26-3.22-1.92-2.84-.72-4.71,1-6.76,2.38-2.75,2.19-4.4-.58-6.62a26.68,26.68,0,0,1-8.54-13c-.71-2.23-1.24-5.4-.36-7.23,2-4.13.67-7.35-.79-10.9-2.13-5.18-1-6.71,4.11-6.35a50.26,50.26,0,0,0,7.45-.53l.13-1.44c-2.77-1.57-5.49-3.3-8.36-4.63-1-.44-2.75-.4-3.35.3-2.67,3.08-6.23,2.4-9.39,3.23-2.55.67-4.12-.16-4.15-3.83,0-5-1-9.5-6.5-10.72-2.65-.59-3.08-3.5-3.61-6.15a100,100,0,0,0-2.6-10.08c-.65-2.09-2.38-2.78-4-1.61-2.57,1.92-5.47,3.85-4.26,8.36a11.25,11.25,0,0,1,0,2.72c0,5.32-.44,5.87-5.16,6.61-.15.8-.35,1.67-.49,2.54-.63,3.84-1.6,4.38-4.48,2.37-1.24-.86-2.39-1.87-4-3.11h.23a7.75,7.75,0,0,0-1.17.31c-3.6,1.52-6.72,1.86-9.18-2.63-1.38-2.51-3.46-4.68-6.79-4-.58.12-1.87-1.66-2.17-2.79s.2-2.6.32-3.7a26.94,26.94,0,0,1-2.75-2.8c-2-2.67-3.78-5.5-5.79-8.14-1.11-1.45-3.18-2.41-3.55-4-.3-1.21,1.38-3,2.14-4.57,2.42-5.05,3.9-6.1,9-5,3.44.76,5.55-1.31,7.67-2.84-1.92-1.67-3.69-3.25-5.51-4.75s-2.88-3.1-1.4-5.44,3.11-4.42,6.28-3.28c1.78.65,3.93,1.18,5.65.66,2.48-.75,5.75-1.83,6.86-4,2.14-4.12,3.29-9,4.35-13.71.89-4,3.14-5.95,6-8,5.88-4.12,11.47-8.75,18.1-13.88-2.62-1.25-4.6-2.32-6.66-3.13s-4.21-1.65-2.57-5.21c-4.79-.23-6.73-7.29-12-5-.07,6.9-.07,6.9-4.68,7.49-.08.52-.15,1.07-.24,1.62-.62,3.85-1,4-4,1.83-2.21-1.66-6.37-1-8.31,1.24-.81.94-1.74,1.75-2.76,2.76-1.11-1.87-1-5.72-3.64-4-4.29,2.75-8.88,2.54-13.43,3.24-1.21.19-3,1.33-3.28,2.41-.65,2.76-1.95,4-4.34,4.4-1.89.3-2.54,1.64-2,3.7.18.71.31,1.44.49,2.25l-5.34.81-.27,1c1.74,1.44,4,2.53,5.12,4.42a12.72,12.72,0,0,1,2,7.26c-.29,2.76-2.78,1-4.34,1a11.43,11.43,0,0,0-1.41.07c.55,3.55-1.42,4.6-3.87,5.31a16.61,16.61,0,0,0-4,1.7c-6.46,3.87-6.67,5.95-1.3,11.24,1.94,1.92,4.14,3.17,6.68,2.2s4.49-.28,6,2.26c.29.5.88.77,1.52,1.31a32.35,32.35,0,0,1,1-3.17c.33-.72.85-1.83,1.33-1.86A2.6,2.6,0,0,1,796,473.9a7.33,7.33,0,0,1,1,3.15c.26,4.33-2.62,8.25-6.46,8.85-2.44.38-4.41,1-5.06,4.32a5.23,5.23,0,0,1-3.1,3.33c-3.23,1-4.31,3-3.67,6.49a6.88,6.88,0,0,1-.35,1.85c-2.09-.78-4-2.08-6-2.08s-3.73,1.37-5.63,2.15c0-3.25-2.32-4.18-5-4.59-2.85-.43-2.82,2.12-3.42,4.13a8.86,8.86,0,0,1-1.5,2.27,13.66,13.66,0,0,1-2.4-2.22,5.37,5.37,0,0,1-.62-2.61c-.15-3.64-2.13-5.22-5-5.65-6.31-1-12.62-1.87-19-2.68-2.34-.3-3.76.7-3.2,3.75a6.82,6.82,0,0,1-.39,2c-2-1.36-3.77-2.69-5.63-3.73-2.68-1.5-4.56-.76-5.57,2.35-.75,2.33-1,4.86-1.59,7.27s-.55,5.08-3.35,6.26c-2.1.89-1.58,2.79.09,3.78,1.09.65,2.51.61,3.78.85,1.8.35,3.6.66,5.55,1-1.27,4.35-4.09,2.76-6.15,3.3s-4.66.32-6,3.26c.79.53,1.4,1.3,2,1.26,3.76-.23,5.16,2.81,6.65,5.78a16.38,16.38,0,0,0,1,1.72c2,3.07,4,5.48,8,3.74,1.78-.77,4-.43,6-.27a13.61,13.61,0,0,1,3.44,1.24l.16,1.56a59.24,59.24,0,0,1-6.15,2.59c-2.14.64-4.48.52-6.54,1.35a5.14,5.14,0,0,0-2.88,3.31,11.88,11.88,0,0,1-4.26,8.29c-4,3.52-5.32,3.42-7-2.06-1.19-3.83-2.68-4.43-6.45-2.23l5.86,8.07-4.45,1.23c1.17,1.11,1.89,1.83,2.64,2.51s1.64,1.34,2.39,2.1c2.42,2.46,2.24,3.64-.68,5.08-1.13.56-2.24,1.17-3.36,1.76,3.53.59,7.28-.1,9,4.56a1.22,1.22,0,0,0,1.06.53c2.85-.26,3,2,3.15,4.2.08,1,.21,2,.32,3,1.55.4,3.22,1.1,3.48,2.21,1.07,4.68,1.42,5.08,5.77,4.77a14.54,14.54,0,0,1,4.41.38c2.59.62,5.11,1.82,7.72,2.11,2.17.24,4.42-.52,6.64-.78,3.76-.44,7.53-.82,11.28-1.23.6,6.33-.7,7.68-5.52,6.5a48.07,48.07,0,0,0-4.72-1.22c-.8-.12-2.36.29-2.41.67-.47,3.3-2.76,4.93-4.42,7.26-2.21,3.1-3.35,7.16-5,10.79l2.74,1.68L732.94,618c-.78.86-2.26,1.76-2.23,2.59.14,3.93-2.75,4.15-4.76,5.53s-4,2.44-5.46,4.25c-3.11,4-6.16,7.86-10.87,9.45a11.57,11.57,0,0,0-1.36.69l.46,1a28.83,28.83,0,0,0,3.21.21c2.33-.11,4.66-.52,7-.42,1.24.06,3.52,1,3.49,1.4-.15,1.88-.45,4.25-1.55,5.41-1.38,1.44-3.56,2-5.47,2.7s-4.16,1.1-6.78,1.76a20.71,20.71,0,0,1,2.82,2.64,3,3,0,0,1,.6,2.29,55.49,55.49,0,0,1-3.56,6.22,8.27,8.27,0,0,1-1.84,1.6c-.27-2,.22-3.53.32-5.06a17.09,17.09,0,0,0-.52-3.63,14.38,14.38,0,0,0-3.07,2.7,17.06,17.06,0,0,0-1.43,4.1l-.69.58c-1.72-5.39-4.69-3.71-7.5-2.45s-5.37,2.7-8.1,3.93a5,5,0,0,0-3,3.79c-.49,1.82-2.14,3.24-3.28,4.84V141.37h561V660.29q-2.1-10.27-4.23-20.55a4.57,4.57,0,0,0-1-2.36c-4.85-4.09-9.46-8.74-14.76-12-12.67-7.67-26.2-7-39.84-3.45a73.34,73.34,0,0,0,.07,9.14c.54,4.31-.63,7.67-3.51,10.3-5.51,5-11.44,8.89-19,8-2.52-.29-5.07-.16-7.61-.21-3.42-.08-4.4,1.56-3,5.08a15.5,15.5,0,0,0,1.09,2c4.36,7.71,2,17.51-5,22a8.88,8.88,0,0,0-3.32,5.15c-.6,2.77-.19,5.8-.32,8.72-.12,2.47-.29,5-.63,7.41-.54,3.91-1.14,7.81-1.92,11.67-.26,1.29-1,3.25-1.79,3.49-2.57.72-2.8,2.46-2.63,4.37,3.14,1.34,6.56,1.87,8.78,4s3.17,5.79,4.86,9.15c1.41-.74,3-1.61,4.67-2.44s3.37-1.51,4.94-2.49a29.52,29.52,0,0,0,4.27-3.28c3-2.74,4.55-2.46,6.46,1.34.35.7.64,1.43,1,2.14,1.3,2.93,3.26,4.53,6.33,4.19,1.71-.19,3.45-.08,5.17-.18,2.24-.11,3.37.59,3.12,3.54-.23,2.6.22,5.27.4,8.44,7.35-.55,14.1-1.18,20.87-1.51a3.24,3.24,0,0,0,3.45-3c0-.1,0-.2,0-.3.49-5.25.78-10.53,1.14-15.57,3.29-.65,7.11-1.2,10.81-2.23,2.37-.65,3.54-2.25,2.8-5.59-.57-2.55-.72-6.28.53-8.06,2.71-3.84,6.32-6.94,9.79-10,2.41-2.13,3.68-4.18,3.43-8a39.24,39.24,0,0,1,1.33-11A99.33,99.33,0,0,1,1240.61,668.48ZM1044.07,345.23c-2.74-3.38-5.17-6.37-7.6-9.38s-1.88-4.36,1-6.27c5.85-3.8,9.8-9.44,10.27-17.23.3-4.88,1.66-9,5.65-10.83,3.68-1.72,4.81-4.82,5.48-8.57.47-2.67.76-5.39,1.29-8a10.6,10.6,0,0,1,1.38-3.56c2.58-4.05,5.36-8.47,4.25-13.39-.94-4.15.41-6.8,2.17-9.59,1.22-1.91,3.11-3.27,4.43-5.11s3.1-3.92,3.46-6.14a24.89,24.89,0,0,0-2.63-15.13c-3.61-7.28-7.31-9.17-14.55-7.38-2.67.66-5.29,1.73-8,2-3.13.33-7,1.31-9.33-.29-5-3.51-10.07-4.28-15-1.93-5.11,2.43-9.09,1.36-13.41-1.68-3.19-2.25-6.37-1.12-9.34,1.22a11.24,11.24,0,0,1-4.68,2.55,13.89,13.89,0,0,0-8.26,4.6,3.72,3.72,0,0,1-2.85,1,16.11,16.11,0,0,1-3.8-1.42c3.26-7.21,10.48-12.33,12.82-21.41-2.82,1.07-5.24,2.13-7.72,2.88a2,2,0,0,1-2.73-2.45c.7-3.06,1.41-6.59,3.22-8.76,3.71-4.47,8.19-8.14,12.3-12.21q10.49-10.43,20.9-20.93c2.57-2.6,4.06-8.11,2.42-9.66-2.33-2.18-1.89-4.54-1.11-7.09.56-1.79,1.3-3.51,2.31-6.19-4.69-1-9-1.94-13.33-2.73-.42-.08-1.12.78-1.45,1.37a5.41,5.41,0,0,1-6.53,3c-3-.69-5.75-.37-8.14,2.27-2.09,2.3-4.77,2.91-7.2.81-3-2.59-5.75-1.84-8.69-.19a20,20,0,0,1-3.39,1.49c-5.14,1.67-9.63-.46-13.82-3.17L961,151.29a19.06,19.06,0,0,0-1.84-3.15,6.72,6.72,0,0,0-2.57-1.9c-2-.72-4.11-1.15-7-1.9-2.25,1.54-3.49,5-4.43,8.66s-1.68,7.19-2.49,10.74c-4.9-.6-5.62.31-4.83,5.55.3,2,.46,4,.71,6.3-1.79-.22-3.37-.43-5-.6l-6-.61c1,2,1.49,3.34,2.24,4.51,2.65,4.13,2.17,9.73-.61,11.5,1.93,3.45,3.94,6.86,5.73,10.41a3.22,3.22,0,0,1-.63,2.61c-2.75,3.19-8.32,2.65-10.68-.92-2.41,1.15-4.79,2.48-7.28,3.4-2.19.82-3.12,2.46-3.18,4.8a75.49,75.49,0,0,0,.21,10.2c.28,2.55.09,4.32-2.63,5.06l4.06,8.15h-3.23c0,4.75.1,9.3-.07,13.84,0,1.14-.84,3-1.55,3.18a6.53,6.53,0,0,1-4.55-.57c-.59-.33-.7-2.64-.4-3.86,1-4,2.33-8,3.38-12a21.74,21.74,0,0,0,.27-4.11l-.91-.23q-2.28,5.52-4.55,11.05l-1.22-.21c0-1.82-.13-3.65,0-5.44.6-7.14-2.42-12.49-6.62-17.26-1.61-1.82-3-1.3-3.63,1a29.71,29.71,0,0,0-.72,6.38c-.11,4,0,8,0,12.92l-8.27-12.74-1.27.45a32,32,0,0,0,.06,5.71c.87,4.81,1,4.75-3.14,5.29a8.11,8.11,0,0,0-3.18,1,2.58,2.58,0,0,0-1,2,69.1,69.1,0,0,0,3.53,8.65c.31.62,2.38,1,2.7.59,2.64-3.45,4.71-1.69,6.87.53-2.19,3.69-2.2,5.77.08,9.35a8.75,8.75,0,0,0,2.47,3,41.91,41.91,0,0,0,8.52,4c4,1.17,5.51,3.17,4.6,6.6-.41,1.52,0,3.3,0,5a16.32,16.32,0,0,0,3.94-1.49c2.51-1.75,4.86-3.8,7.28-5.73l.75.73c-1.22,3.17-2.1,6.59-3.76,9.44s-4.18,5.36-6.25,7.91c1.29.92,4.32.07,3.74,3.72-.47,3-4.69,6.5-7.45,6.8-3,.32-6.28.2-8.25,3.73,3.76,2.62,3.77,4,.15,6.5-1.26.88-2.57,1.68-3.88,2.53v11.93l8.29-2.05a10.89,10.89,0,0,1-1.87,4.53c-1,1.54-3,2.89-3.12,4.51-.54,5.16-3.21,3.83-5.9,3a6.33,6.33,0,0,0-2.33-.64,19.81,19.81,0,0,0-3.51,1.17c.48,1.31.67,2.92,1.48,3.88,2.87,3.39,6.71,3.86,10.46,3,6.89-1.62,14.09-2.22,20.19-7,1-.8,2.77-.42,4.18-.59-.18,1.5-.34,3-.56,4.51a2.15,2.15,0,0,1-.43.9c-4.53,6.79-7.2,15-13,20.81-1.64,1.63-2.69,4-4.21,5.82a6,6,0,0,1-2.74,1.57c-4.56,1.5-9.37,2.33-13.65,4.49-5.1,2.58-3.8,9.17-5.51,13.9a11.77,11.77,0,0,0-.39,1.66c-.52,3,.36,4,2.9,2.81a41.62,41.62,0,0,0,5.18-3.45c2,2.91.24,5.45-.27,8.1-.28,1.41-.46,3.91.08,4.22a4.69,4.69,0,0,0,4.21.09c2.49-1.46,4.62-3.66,7-5.34s3-3.53,2.31-6.76c-1-4.53-.23-5.38,3.49-5.36L911.57,359c.68,9.36,1.35,18.45,2,27.78h-4.36c-.94,4.71-1.8,9,.11,13.51,1.54,3.63.58,7.56-1.52,10.66-2.94,4.32-1.9,8.7-1.15,13.2,5.38.13,8.62-2.57,9.66-7.92,1.41-7.22,2.83-14.43,4.14-21.67.54-3,1.43-5.74,3.91-7.32,1.47-.93,1.76-2.13,1.59-3.89s0-3.87,0-6.74c2.51,1.53,4.62,2.07,5.53,3.53A15.53,15.53,0,0,0,938,386c.52.26.9.88,1.36,1.32,2.35,2.24,4.5,4.82,7.09,6.63,3.35,2.34,6.25,4.95,8.16,8.9,1.7,3.51,1.2,7.75-.9,9.58a22.78,22.78,0,0,0-5.4,6.09c-1.94,3.65-3.07,7.81-4.76,11.64-2,4.57-4.24,9-6.38,13.5-1.22,2.57-1.93,5.62-5.19,6.1-.42.06-1,1.33-1,2.08-.43,5.87.41,11.77,3.77,16.15,3.08,4,5.57,7.84,6,13.16a2.37,2.37,0,0,0,1.5,1.72,2.32,2.32,0,0,0,1.87-1.3,3.41,3.41,0,0,0-.41-2.4c-.55-1.07-1.44-1.92-2-3-1.62-2.9-1.35-10.18.75-11.21,2.84-1.39,5.2.86,7.37,2.72a30.76,30.76,0,0,1,2.85,3.08c2,2.27,3.86,4.73,6,6.77s4.67,3.67,7.65,6c.4-4.43,2-7.54-.92-10.78-2.81-3.07-2-6.68,1.45-9.61,1.27,1.3,2.49,2.63,3.79,3.85,2.13,2,4.31,3.91,6.5,5.82.46.4,1.25,1.07,1.53.89,2.58-1.6,6.27-.29,8-4.17,1.93-4.25,5.26-5.71,9.43-5.22.88.11,2.22-.09,2.66-.74,2.69-3.94,6.48-4.74,10.66-5.12.09.8.19,1.57.3,2.45.74-.27,1.23-.41,1.69-.63,4-1.95,8.17-3.44,9.5-9.1,1.58-6.7,6.07-11,11-14.42a5.06,5.06,0,0,0,2.6-4.46c.17-4.39,1.93-7.49,5.71-9.12,4.82-2.07,9.65-4.14,14.34-6.53,6.19-3.16,6.38-5.05,1.46-10.3-4-4.26-6-12.69-.35-18,2.7-2.57,4.19-6.81,6-10.44a3.49,3.49,0,0,0-.69-3q-10.6-7.35-21.41-14.35c-2.45-1.6-6.89-.12-8.46,2.55-2,3.39-4,6.77-5.93,10l-12-6.2a88.92,88.92,0,0,0,6.76-6c1.91-2,3.26-4.7,5.2-6.67a11,11,0,0,1,4.7-2.5c1.94-.59,4.18-.22,6-1.08C1038.48,349.36,1040.86,347.37,1044.07,345.23Zm-83.5,394.28c3.26,7.55,3.26,7.55,9.6,5.91,1.28-.33,2.61-.48,3.86-.92a4.59,4.59,0,0,0,2.11-1.46c1.78-2.38,3.88-2.79,6.27-1.5a13.57,13.57,0,0,1,6.74,8.39c1,3.53,2.94,6.14,6.05,7.07a76.44,76.44,0,0,0,11.88,2.48,6.65,6.65,0,0,0,4.66-1.29c7.34-5.85,14.39-12.19,22.52-15.24.58-3.67.58-7.12,1.73-10s3.47-5.14,5-7.28c-1.21-1.23-3.08-2.34-3.88-4.08-1.88-4.11-4.33-5.85-8.51-4.93-1.11.24-3.35-.95-3.65-2-1.62-5.71-2.91-11.55-4.1-17.39-1.25-6.2.41-8.59,6.05-9.48.72-.12,1.82-.8,1.95-1.42.67-3.21-2.15-6.64-5.17-7.07a14.59,14.59,0,0,1-5.87-2c-3.93-2.57-3.87-6,0-8.56,2.09-1.38,4.42-2.31,6.55-3.61a10.71,10.71,0,0,0,2-2.2,8.88,8.88,0,0,0-2.39-1.37c-2.56-.49-3.09-1.88-1.76-4.27.85-1.54,1.87-3,2.66-4.55,1-2.09,1.91-4.28,2.85-6.42a43.29,43.29,0,0,0-6-2.43c-2.3-.56-3.66-1.82-3-4.41a20.47,20.47,0,0,1,2.56-5.63,31.45,31.45,0,0,1,4.07-5.26c.77-.8,2.16-1.64,3-1.39,3,.91,5.9,2.29,8.8,3.47a18,18,0,0,0-7.74-16.11c-2.29-1.68-2.89-3.84-1.52-6.39s.87-4.88-.61-7.19c-3.25-5.08-6.41-10.22-9.69-15.45a6.25,6.25,0,0,0-1.2.83c-5.31,5.89-12,6.92-19,6.66-2.3-.09-4.58-.9-6.88-1.26-5-.8-5.35-.57-7,4.76a33.59,33.59,0,0,1-3.58-.65c-5.3-1.55-10.36-3.44-12.47-10.09a2.89,2.89,0,0,0-2.35-1.4c-4.22.14-8.43.51-12.58.79-.36,5.28-.37,5.27-4.14,8.42-1.3,1.08-1.72,2.22-.17,3.52s3,2.67,4.55,4l10.16,9c-2.34,7.36-6,12.53-11.54,16.42a24.07,24.07,0,0,0-9.77,14.76,16,16,0,0,0,4.92-1.75,28.91,28.91,0,0,0,2.79-2c2.91-2,4.52,1.32,6.83,2.31,2.35-2.28.49-7.54,4.75-8.32,3.17-.59,6.31-1.38,9.58-2.1a54.82,54.82,0,0,0,.07,6.66,11.5,11.5,0,0,0,1.6,4.86c2.36,3.48,2.31,5.91-.64,8.86a5.63,5.63,0,0,0-.47,8l0,0a19.55,19.55,0,0,0,2.24,2.31c1.57,1.4,1.7,2.73.44,4.62-2.4,3.62-4.16,7.57-3.3,11.75-4.12,4.32-8,8.29-11.8,12.39-3.44,3.72-7.22,6.81-12.12,7.16a9.89,9.89,0,0,0-7.53,4.43c-2.75,3.7-6.13,5-10.35,3.87a3.15,3.15,0,0,0-2.88,1.28,13.46,13.46,0,0,1-9.26,7.62c-.59.14-1.48,1.26-1.4,1.75a4.26,4.26,0,0,0,1.51,2.23c.42.37,1.17.28,1.77.34,2.9.28,3.91,2.45,4.24,5.3s-1,4.22-3.13,5.1c-.56.22-1,.9-1.45,1.37.56.52,1,1.3,1.67,1.53a9.12,9.12,0,0,1,5.89,6c.91,2.73,2.36,3.08,4.5,2.1,2.71-1.25,5.36-2.87,8.19-3.59s3.38-2.4,3.49-5a17.28,17.28,0,0,1,.29-2.29,13.51,13.51,0,0,1,2.29-.17c3,.33,6,1.15,9-.88.7-.48,2.77,1.41,4.11,2.38,1.52,1.11,2.82,2.66,4.42,3.55,1.11.62,2.6.3,3.87.67a8.67,8.67,0,0,1,2.18,1.46c-.6.78-1.08,1.86-1.84,2.26a54.93,54.93,0,0,1-5.55,2.16Zm79.66-312.66a82,82,0,0,1,1.42,9.1c.11,2.64.85,4.27,3.13,5.12,4.71,1.76,5.68,4,3.93,9.22-1,3.08-2.35,6-3.44,9.1-.62,1.73-.41,2.78,1.7,2.66,5.54-.31,7.4,2,7.92,8a27.68,27.68,0,0,0,2.55,9.56c2.17,4.48,5.07,8.51,7.55,12.8a35.68,35.68,0,0,1,1.91,4.77c-4.42-.27-5.87,2.69-6.62,6-.65,2.82-.53,5.85-.89,8.77-.51,4.17-1.85,7.63-6,8.92-1.12.36-2.06,1.48-3.08,2.26a20,20,0,0,0,2.56,3.38c1.43,1.24,3.22,2,4.64,3.22,1.59,1.38,3.55,2.81,4.26,4.73,1.15,3.13,3.11,3.68,5.63,4.11,6.43,1.1,7.86,4.1,5.4,10.91a13.74,13.74,0,0,1-.77,1.86,7,7,0,0,0,.5,7.64c3.28,5,6.12,10,4,15.37,3.31,3.58,6.79,6.12,8.72,9.7,3.26,6,7.9,8.15,13.62,9.48,6.33,1.48,11.08-.28,14.62-6.29a3.06,3.06,0,0,1,.86-1c3-2,5.82-4.77,9.07-5.7,2.35-.68,4.17-1.2,5.24-3.62,1.17-2.64,2.79-2.45,4.35-.76s2.79,1.28,4.42.58c6-2.55,11.86-5.34,18.47-4.78.5,0,1.16-.6,1.56-1.11,1.55-2,3-4,4.73-6.28a80.71,80.71,0,0,0-10.38-21.89c-2.08-3-3.48-6.46-2.59-10.16.63-2.59,2.36-4.84,3.88-7.8-1.17-.58-2.47-1.73-3.78-1.76-2.4-.06-3.42-1.53-4.65-3.52-4.91-7.92-9.7-16-15.2-23.4-4.29-5.77-9.61-10.49-16.78-11.38-4.29-.53-7-3.18-8.15-7.87-.28-1.16-.67-2.72-1.45-3.22-6.91-4.34-6.74-12.55-8.06-19.57-.68-3.63-1.31-7-3.18-10a23.79,23.79,0,0,1-3.89-13.63c.13-4.25.14-9-1.35-12.72a66.44,66.44,0,0,1-4.55-16.48,3.44,3.44,0,0,0-1.41-2.41c-5.87-2.57-9.53-7.46-12.16-13.65a47.09,47.09,0,0,0-3.1-5.44c-2.76,4-5.14,7.94-7.92,11.45s-3.3,6.21-1.09,10.06a35.38,35.38,0,0,0,3.82,4.81c3.43,4.1,3.3,8-.76,11.25a35.17,35.17,0,0,1-7,4.06c-4.21,2.09-8.56,3.93-12.21,5.55Zm170.41,328.44c-3.46-5.69-9.52-8-15.52-9.16-4.27-.84-9,.53-13.4,1.26-4.63.76-4.61.94-3.45,6.07.74,3.29-.54,6-3.55,7.82-2.63,1.57-4.19,0-5.56-2.25l-.67-1.15c-3.35,4.39-3.28,4.27-7.54,1-1.16-.88-3.24-1.56-4.33-1-2.79,1.47-3.82.09-4.32-2.49s-1.67-4.11-4.3-4.25-3.47-1.94-2.71-4.77a21.07,21.07,0,0,0,1.21-5.6,15.94,15.94,0,0,0-1.41-5.55c-.58-1.49-2-2.65-2.33-4.16-1-4.66-3.53-7-7.62-7.48-1.59-.19-3.17-.41-5-.65.53-4.2-1.22-9.15,3.93-11.38.37-.15.54-1.12.66-1.74.68-3.78,1.44-7.54,1.94-11.35.37-2.86.39-5.77.58-8.89a12.23,12.23,0,0,0-9.52,6.45c-.73,1.31-2.31,3.17-3.24,3-4.84-.92-7.48,1.85-9.53,6.1a2.83,2.83,0,0,1-1,1.27c-1.62.89-3.6,2.69-4.85,2.21s-2.29-3.21-2.55-5.1c-.42-3-.11-6.18-.11-9.28l-1-.32a38.33,38.33,0,0,1-2,3.81c-.93,1.39-1.94,3.54-3.13,3.72-3.84.62-4.86,3.24-5.43,7-.36,2.32-1.32,4.47-4.1,4.69-.69.06-1.8,1.93-1.8,3,0,6.71.26,13.42.59,20.12a4.47,4.47,0,0,0,1.65,2.75c7,5.53,10.28,13.22,10.56,22.63a5.55,5.55,0,0,1-3.9,5.84,68.47,68.47,0,0,1-6.94,1.47,32.6,32.6,0,0,1,3,4c.58,1,1.27,2.69.93,3.6-1.4,3.64-.85,7,.16,10.58,1.61,5.75-1.08,8.82-6.37,7.66-2.44-.53-4.86-1.21-7.28-1.83,3.7,1.6,4.94,4.77,5.35,8.85a5.9,5.9,0,0,0,2,3.7c3,2.29,3.32,5.28,2.82,8.92-.39,2.77,1.73,6.83,3.47,6.76,4.35-.19,7.57,2.2,10.53,5.27,1.22,1.27,2.35,1.62,3.76.54,1.75-1.35,3.59-2.56,5.23-4.06a4,4,0,0,0,.92-5.15c-.84-1.75-1.42-3.65-2.19-5.68,6.61-4,11.5,0,16.67,3.49,3.54-4.67,8.35-6.76,13.63-8q7.13-1.65,14.13-3.93a5,5,0,0,1,4.78.81c3.93,2.58,8,4.86,12,7.31,1.86,1.14,3.33.65,5-.79,3.7-3.31,7.5-6.48,11.35-9.57a3.92,3.92,0,0,1,2.84-.81c3.19.5,5.15-1.16,6.73-4,1.76-3.18,4.35-4.65,7.73-4.22,1,.12,1.94.15,2.65.2a59.07,59.07,0,0,1,2.72-6.4c3.47-6,8.81-8.94,14.67-10.82,1.84-.59,2.91-1.53,3-3.56.33-6.39.56-12.77.83-19Zm-148.25-261c-.76-1.2-1.44-2.19-2-3.23-3.87-6.72-8.78-12.87-8.67-21.67,0-3.48-2.26-4-4.9-4-4.1,0-5.58-2.07-4.38-6.53a102.68,102.68,0,0,1,3.5-9.79c1-2.52.55-3.91-2-4.73-4.26-1.34-5.15-3.07-5.17-8.24,0-1.5-.23-3-.36-4.51-.88,1.69-1,3.4-1.47,5a4.19,4.19,0,0,1-1.67,2.5c-5.7,2.41-9.54,7-11.42,13.26a14.6,14.6,0,0,1-8.27,9.71,61.72,61.72,0,0,1-6.49,2.9c-1.76.6-2.31,1.79-3,3.6a26.92,26.92,0,0,1-4.91,8.26c-1.71,1.85-2.93,3.51-3.07,6.18-.17,3.07-.59,6.12-.63,9.19a9.11,9.11,0,0,0,1,4.09,77,77,0,0,1,8.07,23.77c.39,2.41.89,4.8,1.33,7.17h3.33l3.28-6.23c3.27,3.21,3.28,6.43.24,9.12-2.35,2.08-.66,3.51.39,5.08,1.31,2,2.47,1.43,3.58-.32,1-1.56,1.83-3.41,3.15-4.52,2.87-2.4,6-4.4,9.16-6.67,2.86,2.33,2.92,3.88,0,6.86-1.54,1.58-3,3.32-4.5,5.09l2.84,2.26c-.47,4.31-3,5.61-6.23,5.82,0,3.4-.32,6.51.06,9.51a39.28,39.28,0,0,1-2.56,20,6.67,6.67,0,0,0-.53,3.58c1.35,6.33,2.4,12.81,6.74,17.78a32.59,32.59,0,0,1,3.3,5.3c1.66,2.91,2.65,5.87.85,9.26-.33.63-.1,2.43.25,2.58,4.44,1.95,5.3,6.88,7.33,10.94,4.22-2.85,6.54,3.37,9.91,2.76,1.14-2,1.76-4.16,3.07-5.31a18.68,18.68,0,0,0,6.4-10.45,7.16,7.16,0,0,1,6.51-6.14c2.39-.31,4.78-.64,7.41-1-.35-2.27-.69-4.39-1-6.51-.86-5.92-1.22-12,1.09-17.46,2.57-6.08,2.72-11.36-1.28-16.64-2.91-3.84-3.32-8-1-12.6,2.54-5.08,1.71-6.22-3.29-7.45a15.4,15.4,0,0,1-6.14-3.66c-2.06-1.85-3.56-4.47-5.56-6.42-1.67-1.62-3.84-2.57-5.56-4.14a5.69,5.69,0,0,1,1.42-9.35c5.55-2.44,5.92-3,6-9.67C1056.54,502.93,1057.91,498,1062.39,494.29ZM814,468.41l-.28,1.86c2.37,1.43,4.69,3,7.12,4.26s3,2.9.81,4.77c-3.44,3-6.93,5.91-11.85,4.71-2.33-.56-4.7-.14-5.44,3.34a9.34,9.34,0,0,1-1.57,2.58l.86-.67a86.22,86.22,0,0,1,5.11,7.17c2.17,3.75,7.16,5.79,5.49,11.93,3.22-.62,5.16.94,6.8,3.38,2.17,3.23,4.6,5.36,8.48,2.84,1.47-1,3.11-.42,4.18,1.51a4,4,0,0,0,1.38,1.31c1.24-1.94,2.21-4.75,3.22-4.78,3.28-.07,3.28-2.08,3.28-4.68,0-4.71-.72-9.44,4.59-12.08,3.09-1.54,6.89-2,8.44,1.54a52.67,52.67,0,0,1,3.5,11.5c.47,2.54,1,4.29,3.39,4.85,3.52.81,5.34,3.5,6,7.26.38,2.09.59,4.22,1,7.22l8.94-4.06a8.51,8.51,0,0,1,2-.82c3.77-.61,11.57,4.19,13.19,8,5.17-3.5,7.54-6.53,7.61-10.67.07-3.57,1.74-4.84,4.53-5.1,1.11-.1,2.23-.13,3.34-.28,7.78-1.06,12.09-6,11.52-14.85-.53-8.21-2.2-16.32-3.4-24.66-3.39,1.08-6.28,2.12-9.23,2.83-.7.17-1.62-.75-2.44-1.18.54-.92,1-1.89,1.62-2.76s1.78-1.68,2.13-2.74c1.11-3.34.31-6.42-1.4-9.36C903.58,456.82,900.24,451,897,445c-1.54-2.82-2.68-5.73-1.16-9.27.88-2.06.53-4.43-1.92-5.24-2.72-.9-3.55-2.85-3.45-5.9,0-1.07-1.13-2.19-1.75-3.28a14.68,14.68,0,0,0-1.84,3.28,46.47,46.47,0,0,0-.79,6c-1.75-1.45-2.81-2.31-3.85-3.19-2.72-2.3-9.83-2.88-11.72-.37-2.45,3.24-5.4,3.16-8.57,3-5.11-.35-5.11-.35-7.16,4.77a9.56,9.56,0,0,0-.59,1.57c-.82,3.89-2.53,5.35-7.21,4.58-2.57-.42-8,2.52-8.87,5.15-1.66,5-3,10.12-4.71,15.09-.62,1.79-1.62,3.87-3,4.78A15.1,15.1,0,0,1,817,468C816.1,467.67,815,468.29,814,468.41Zm323,217.66c.24-4.44.73-8.46,4.77-10.71,6.28-3.49,7.92-11.05,4.13-17.72a15,15,0,0,1-1.59-4.38c-.88-4.7,1.18-7.45,5.5-7.47,3.35,0,6.71-.11,10,.13,6.51.46,11.42-3.16,15.9-7.75,1-1,1.52-2.74,2.45-4.5-4.1-1.54-7.6-3-11.17-4.15-3.83-1.29-4.7-3.52-2.61-7.35,2.82-5.16,5.84-10.13,10.61-13.38,1.31-.89,2.7-7.58,1.66-8.78-3.47-4-4.09-9.31-5.59-14.2-1.2-3.9-3.23-6.44-7.07-6.92-1.48-.19-3.27-.38-4.31-1.38-3-2.92-6.44-2.55-9.75-1.63-4.31,1.2-8.49,3-12.73,4.47-2.25.81-4.36,1-5.81-2.17-1.82,3.86-3.86,6.59-8.11,5.81-1.3-.23-3.06,1.13-4.28,2.23a38.09,38.09,0,0,0-5.42,5.93c-3,4.15-6.65,5.8-11.46,5.24-8.16-1-15.62-2.82-19.73-12.14a11.77,11.77,0,0,0-7.61-6.35c-3.13,8.07-.84,16-.21,23.87a49.44,49.44,0,0,1,7.12,3,6.51,6.51,0,0,1,2.57,3.75c.68,2.58.75,5.36,1.2,8,.79,4.7,0,8.84-3.28,12.12a27.1,27.1,0,0,1-2.53,2c.22.31.45.62.67.94l1.74.16c2.82.28,5.71.2,8.44.91,3.75,1,4.68,4.23,2.52,7.82a44.32,44.32,0,0,1-2.78,3.75,25.8,25.8,0,0,0,3.6,2.25,10.35,10.35,0,0,1,6.51,7.86,9.36,9.36,0,0,0,2.3,3.94c3.48,3.78,7,7.61,10.71,11,2.36,2.15,2.68,4.39,1.57,7.17a23.94,23.94,0,0,1-2.41,4.73c-4.48,6.57-3.53,14.13-3.24,21.57a14.08,14.08,0,0,0,.75,2.55c1.79-2.52,3.75-4.29,4.51-6.56,1.31-3.86,3.63-4.16,6.68-4,1.25,0,3.12-.53,3.71-1.56a15.82,15.82,0,0,1,12.11-8.1Zm-112.32-28.18c3.24,0,4.58,2,4.81,4.87s-1.57,4.28-3.54,5.4c-1.62.92-3.33,1.67-5,2.6-1.11.64-2.13,1.46-3.89,2.69,2.4,1.1,4,2.32,5.66,2.52,5.81.7,8,2.78,8.94,9,.58,4-.5,5.65-4.12,6.12s-4.71,1.77-3.77,5.82c1.27,5.47,2.82,10.84,4.33,16.54,5.44-1.57,9.24.57,11.46,6.39a3.6,3.6,0,0,0,2.32,1.85,30.29,30.29,0,0,0,4.85.37c1.19-1.27,2.08-2.87,3.33-3.43,5.11-2.31,5.2-2.3,4.28-8.39a11.47,11.47,0,0,1-.38-2.67,16.45,16.45,0,0,1,.82-3,18.2,18.2,0,0,1,2.59,1.26,5.89,5.89,0,0,1,1.19,1.53c2.75,4.12,3.45,4.21,6.71.36,1.74-2.05,3.5-3.85,6.26-3.46,5.16.75,8.2-3.58,11.93-6.26,1-.76,2.33-2.26,3.13-2,1.08.35,1.93,2,2.62,3.25.92,1.68,1.58,3.53,2.7,6.1,1.76-4.23,4.2-5.51,6.78-7.22,2.93-1.94,3.87-7.08,7.77-8.56.09-5,3.26-8.2,5.27-12.1,1.06-2.06.89-3.44-1-5.14-3.91-3.59-8.31-7.06-10.93-11.7-3-5.27-5.86-9.92-10.89-12.92-2.41-1.44-2.11-4.09-.08-6.19.92-1,1.66-2.14,3-3.94a50.23,50.23,0,0,0-5.26-1.25c-2.61-.34-5.27-.31-7.86-.79a4,4,0,0,1-2.72-2.15c-.29-.77.52-2.25,1.12-3.21a11.31,11.31,0,0,1,2.23-2.3,9.7,9.7,0,0,0,3.13-9.07c-.48-3.46-1-6.91-1.53-10.14-5.34-2.33-10.65-3.42-16.2-1.91a5.27,5.27,0,0,0-4.24,4.29,21,21,0,0,1-6.72,11.09,7.11,7.11,0,0,0-1.72,3c-1,3.15-2.49,4.29-5.31,3.27a70.31,70.31,0,0,1-6.61-3.17,69.65,69.65,0,0,1-1,7c-.27,1.19-.94,2.69-1.8,3.14-.62.33-1.9-.78-2.82-1.37-2.11-1.35-4.18-2.78-7-4.65-.22,5.69-6.11,5.81-6.1,10.83,5.58.83,8.33,2.21,9,5.07C1031.87,651,1027.7,653.78,1024.72,657.89ZM858.4,254.58a47.36,47.36,0,0,1-1.85-5.58,7,7,0,0,1,.22-3.77c2.89-7.19,7-13.78,8.25-21.79.55-3.33,1.82-6.49,4.87-8.19s6.16-3.39,9.07-5.39c1.37-.93,2.35-2.57,3.5-3.89.81-.92,1.46-2.25,2.44-2.71,2.7-1.29,6.12-1.27,6.87-5.62.08-.46,1.05-.65,1.38-1.15a8.1,8.1,0,0,0,1.58-3.07c.36-2.9.31-5.87.59-8.79.23-2.34,1.59-3.17,3.65-3.09,4.75.19,6.46-1.53,7.4-7.53l-6,.91c6.88-7.5,5.22-13,2.8-21.2-.85-2.89-2.41-3.08-4.31-.94a23.45,23.45,0,0,0-1.65,2.42c-1.24,1.74-2.23,3.88-3.78,5.13-7.09,5.71-14.51,10.92-22.89,13.9-4.32,1.53-6.61,4.58-7.45,9.32-.35,2-.47,4.06-.82,6.06a7.85,7.85,0,0,0,2.19,7.3c3.51,3.73,3.31,5.72-.69,8.89-1.61,1.27-2.14,2.43-1.2,4.52.34.75-.08,1.94-.16,2.92a8.74,8.74,0,0,1-2.5-1.34,43.14,43.14,0,0,1-3.14-4.22c-.4,2.27-.64,3.7-.92,5.12-.77,4-3.44,5.56-6.56,6.78a6.05,6.05,0,0,0-3,2.67c-.67,1.29-.66,3-1,4.93,3.29,2.91,6.16,6.73,5.84,12-.22,3.55-1.4,7-2.1,10.55-1,5.18-2.52,10.23-.21,15.64.62,1.47-.31,4.25-1.24,5.93-1.08,2-3.1,3.25-4.43,5.09a32,32,0,0,0-3.49,6.19c-1.22,2.91-2,6.05-3.15,9-.59,1.56-1.83,3.25.23,4.22.54.26,2.48-1.39,2.72-2.46,1.19-5.28,4.42-8.22,8.12-11.36a34.41,34.41,0,0,0,8.75-11.45c1-2.25-.61-6.23-1.39-9.32C854,257.72,854.91,255.52,858.4,254.58Zm306,503c3.32-4.07,4.35-4.25,6.62-1.32.81,1.06,1.59,3.08,3,1.35a5.91,5.91,0,0,0,.82-4.39c-1.34-5-.84-6.41,3.59-8.18.64-.26,1.26-.58,1.81-.83-.29-3.14-.56-6-.81-8.73-3.32-.39-6.91.12-9.58-1.39s-4.28-5-6.1-7.33l-13.79,8c-.48,4.62-.91,8.78-1.34,12.93,4.26.91,4.7,1.31,7,6.72,3.56-1.66,6.29.49,8.77,3.14ZM943.75,532.75a28.53,28.53,0,0,1,3.65-1c1.51-.21,3.25-.8,4.5-.19a3.57,3.57,0,0,0,4.91-1.09c3-3.78,7.52-6.29,7.8-12.34,0-1.1,1.46-2.08,2.1-3.21.44-.79,1.15-2.14.88-2.57a14.35,14.35,0,0,1-2-11.4c-4.67-.57-7.36,1-8.79,5.16s-3,8-6.57,10.28a2.59,2.59,0,0,0-1,1.9,13.27,13.27,0,0,1-3.82,11.18A17.17,17.17,0,0,0,943.75,532.75ZM928.36,388.94c-.54.33-2.21.78-3,2a10.17,10.17,0,0,0-1.18,9.92c.62,1.54,1.86,3.15,1.74,4.61-.4,4.68,1.86,6.9,5.13,8.8s5.6,1.49,6.6-2.55a20.24,20.24,0,0,0-.08-7.6c-.42-2.85-1.54-5.55-2.05-8.39C934.76,391.64,932.48,389,928.36,388.94ZM895.54,284.86c0-1.13-.11-2.14-.13-3.15-.09-5.67-.69-6.24-5.78-6.73-1.59-.15-3.1-1.2-4.68-1.7a14.56,14.56,0,0,0-4.07-.86c-.38,0-1.19,2-1.1,2.08a23.39,23.39,0,0,0,3.35,2.34c.81.47,2.35.67,2.42,1.19a11.48,11.48,0,0,0,4,7.65c.61.51.74,1.8,1,2.77a45.79,45.79,0,0,0,1.18,4.89,3,3,0,0,0,2,1.48c.43.08,1-.84,1.55-1.31a8.3,8.3,0,0,0,2-1.79c1.07-1.89,2-3.93,2.9-5.91-1.24-.21-2.49-.41-3.73-.63A6.86,6.86,0,0,1,895.54,284.86Zm-9.27,16.7c-4.09,3.72-7.94,6.56-11,10.23a10.43,10.43,0,0,1-8.82,4.19h-6.81l-.74,1.27q2.28,5,4.58,10l1.16-.33c.18-1.33.36-2.66.58-4.22,3.58.77,6.23-1.07,8.71-3.63a10.48,10.48,0,0,1,3.55-2.44c3.92-1.58,8.66-9,8.79-15.07ZM733.14,596.87c-.21-.35-.65-2.06-1.61-2.57a106.05,106.05,0,0,0-10.92-4.94c-.81-.32-1.92.32-2.89.52.41,1.14.58,2.59,1.3,3.37a50.08,50.08,0,0,0,5.88,5.3,16.65,16.65,0,0,0,4.77,2.73C732,602,733.34,600.84,733.14,596.87ZM895.48,352.29c-4.28,1.42-6.76,4.73-6.79,8.72,0,2.58,1.77,4.13,3.11,2.45,1.9-2.37,2.86-5.72,4.06-8.74C896.09,354.12,895.61,353.14,895.48,352.29Z"/><path class="cls-2" d="M679.57,674c1.14-1.6,2.79-3,3.28-4.84a5,5,0,0,1,3-3.79c2.73-1.23,5.37-2.7,8.1-3.93s5.78-2.94,7.5,2.45l.69-.58a17.06,17.06,0,0,1,1.43-4.1,14.38,14.38,0,0,1,3.07-2.7,17.09,17.09,0,0,1,.52,3.63c-.1,1.53-.59,3-.32,5.06a8.27,8.27,0,0,0,1.84-1.6,55.49,55.49,0,0,0,3.56-6.22,3,3,0,0,0-.6-2.29,20.71,20.71,0,0,0-2.82-2.64,66.57,66.57,0,0,0,6.78-1.76c2-.76,4.09-1.26,5.47-2.7,1.1-1.16,1.4-3.53,1.55-5.41,0-.38-2.25-1.34-3.49-1.4-2.32-.1-4.65.31-7,.42a28.83,28.83,0,0,1-3.21-.21l-.46-1a11.57,11.57,0,0,1,1.36-.69c4.71-1.59,7.76-5.49,10.87-9.45,1.43-1.81,3.56-3,5.46-4.25s4.9-1.6,4.76-5.53c0-.83,1.45-1.73,2.23-2.59l4.34-4.79-2.74-1.68c1.6-3.63,2.74-7.69,5-10.79,1.66-2.33,4-4,4.42-7.26.05-.38,1.61-.79,2.41-.67a48.07,48.07,0,0,1,4.72,1.22c4.82,1.18,6.12-.17,5.52-6.5-3.75.41-7.52.79-11.28,1.23-2.22.26-4.47,1-6.64.78-2.61-.29-5.13-1.49-7.72-2.11a14.54,14.54,0,0,0-4.41-.38c-4.35.31-4.7-.09-5.77-4.77-.26-1.11-1.93-1.81-3.48-2.21-.11-1-.24-2-.32-3-.17-2.24-.3-4.46-3.15-4.2a1.22,1.22,0,0,1-1.06-.53c-1.75-4.66-5.5-4-9-4.56,1.12-.59,2.23-1.2,3.36-1.76,2.92-1.44,3.1-2.62.68-5.08-.75-.76-1.61-1.39-2.39-2.1s-1.47-1.4-2.64-2.51l4.45-1.23-6-8c3.77-2.2,5.26-1.6,6.45,2.23,1.71,5.48,3,5.58,7,2.06a11.88,11.88,0,0,0,4.26-8.29,5.14,5.14,0,0,1,2.88-3.31c2.06-.83,4.4-.71,6.54-1.35a59.24,59.24,0,0,0,6.15-2.59l-.16-1.56a13.61,13.61,0,0,0-3.44-1.24c-2-.16-4.25-.5-6,.27-4,1.74-6-.67-8-3.74a16.38,16.38,0,0,1-1-1.72c-1.49-3-2.89-6-6.65-5.78-.57,0-1.18-.73-2-1.26,1.38-2.94,3.88-2.69,6-3.26s4.88,1,6.15-3.3c-2-.35-3.75-.66-5.55-1-1.27-.24-2.69-.2-3.78-.85-1.67-1-2.19-2.89-.09-3.78,2.8-1.18,2.79-3.82,3.35-6.26s.84-4.94,1.59-7.27c1-3.11,2.89-3.85,5.57-2.35,1.86,1,3.59,2.37,5.63,3.73a6.82,6.82,0,0,0,.39-2c-.56-3,.86-4,3.2-3.75,6.33.81,12.64,1.73,19,2.68,2.91.43,4.89,2,5,5.65a5.37,5.37,0,0,0,.62,2.61,13.66,13.66,0,0,0,2.4,2.22,8.86,8.86,0,0,0,1.5-2.27c.6-2,.57-4.56,3.42-4.13,2.66.41,5,1.34,5,4.59,1.9-.78,3.76-2.14,5.63-2.15s3.91,1.3,6,2.08a6.88,6.88,0,0,0,.35-1.85c-.64-3.51.44-5.52,3.67-6.49a5.23,5.23,0,0,0,3.1-3.33c.65-3.35,2.62-3.94,5.06-4.32,3.84-.6,6.72-4.52,6.46-8.85a7.33,7.33,0,0,0-1-3.15,2.6,2.6,0,0,0-1.93-1.29c-.48,0-1,1.14-1.33,1.86a32.35,32.35,0,0,0-1,3.17c-.64-.54-1.23-.81-1.52-1.31-1.47-2.54-3.3-3.28-6-2.26s-4.74-.28-6.68-2.2c-5.37-5.29-5.16-7.37,1.3-11.24a16.61,16.61,0,0,1,4-1.7c2.45-.71,4.42-1.76,3.87-5.31.64,0,1-.07,1.41-.07,1.56,0,4,1.8,4.34-1a12.72,12.72,0,0,0-2.05-7.26c-1.17-1.89-3.38-3-5.12-4.42l.27-1L791,439c-.18-.81-.31-1.54-.49-2.25-.54-2.06.11-3.4,2-3.7,2.39-.38,3.69-1.64,4.34-4.4.26-1.08,2.07-2.22,3.28-2.41,4.55-.7,9.14-.49,13.43-3.24,2.66-1.71,2.53,2.14,3.64,4,1-1,2-1.82,2.76-2.76,1.94-2.24,6.1-2.9,8.31-1.24,3,2.21,3.37,2,4-1.83.09-.55.16-1.1.24-1.62,4.61-.59,4.61-.59,4.68-7.49,5.28-2.26,7.22,4.8,12,5-1.64,3.56.38,4.35,2.57,5.21s4,1.88,6.66,3.13c-6.63,5.13-12.22,9.76-18.1,13.88-2.89,2-5.14,4-6,8-1.06,4.7-2.21,9.59-4.35,13.71-1.11,2.13-4.38,3.21-6.86,4-1.72.52-3.87,0-5.65-.66-3.17-1.14-4.78.93-6.28,3.28s-.34,4,1.4,5.44,3.59,3.08,5.51,4.75c-2.12,1.53-4.23,3.6-7.67,2.84-5-1.12-6.53-.07-9,5-.76,1.56-2.44,3.36-2.14,4.57.37,1.57,2.44,2.53,3.55,4,2,2.64,3.81,5.47,5.79,8.14a26.94,26.94,0,0,0,2.75,2.8c-.12,1.1-.63,2.53-.32,3.7s1.59,2.91,2.17,2.79c3.33-.71,5.41,1.46,6.79,4,2.46,4.49,5.58,4.15,9.18,2.63a7.75,7.75,0,0,1,1.17-.31h-.23c1.58,1.24,2.73,2.25,4,3.11,2.88,2,3.85,1.47,4.48-2.37.14-.87.34-1.74.49-2.54,4.72-.74,5.14-1.29,5.16-6.61a11.25,11.25,0,0,0,0-2.72c-1.21-4.51,1.69-6.44,4.26-8.36,1.57-1.17,3.3-.48,4,1.61a100,100,0,0,1,2.6,10.08c.53,2.65,1,5.56,3.61,6.15,5.49,1.22,6.46,5.77,6.5,10.72,0,3.67,1.6,4.5,4.15,3.83,3.16-.83,6.72-.15,9.39-3.23.6-.7,2.4-.74,3.35-.3,2.87,1.33,5.59,3.06,8.36,4.63l-.13,1.44a50.26,50.26,0,0,1-7.45.53c-5.12-.36-6.24,1.17-4.11,6.35,1.46,3.55,2.79,6.77.79,10.9-.88,1.83-.35,5,.36,7.23a26.68,26.68,0,0,0,8.54,13c2.77,2.22,3,3.87.58,6.62-1.77,2.05-3,3.92-1,6.76,1,1.39.62,2.82-1.26,3.22a14.52,14.52,0,0,0-2.31.94c3.59,10.53,3.55,21.44,3.6,32.31,0,5.7-1,10.82-4.79,15.3A18.52,18.52,0,0,0,879,651.3c.68,5-1.5,9-3.66,13.07-1.77,3.3-3.52,6.63-5,10.1-1.08,2.5-.85,5.16,1.74,6.33,2.28,1,2.39,2.73,2,4.87-.47,2.42-2,4.06-4.07,3.73-5.26-.81-10.77.35-15.75-2.82-2.37-1.51-4.68-1.36-6.77,1.4-.9,1.19-3,1.77-4.51,1.75-6.58-.1-13.14-.64-19.72-.77a9.69,9.69,0,0,0-5.57,1.26c-1.53,1.07-3.36,3.26-3.42,5-.18,5.09-3,7-6.55,8.13-2.79.88-5.85,1-6.8,5-.11.45-.8,1.12-1.1,1-3.22-.77-4.28,2.26-6.06,4.11a6.47,6.47,0,0,1-7.08,1.71c-2.39-.73-4.27-.74-5.36,2.71-1.36,4.32-4.72,5.26-8.5,4.62a2.78,2.78,0,0,0-.91,0,2.66,2.66,0,0,0-.64.3c-.26,1.58-.53,3.22-.92,5.56-1.58-1.46-2.75-2.62-4-3.68s-2.56-1.44-3.2.93c-.7,2.61-2,3.52-4.56,2.58-1.58-.58-3.54-.62-4.57,2-.33.83-2.3,1.2-3.5,1.18-3.28,0-6.55-.51-9.82-.58-.91,0-2.47.54-2.66,1.22-1.32,4.61-4.78,3.84-7.78,4.17a41.83,41.83,0,0,1-4.19,0c-.18-4.86-3-5.37-6.38-5-3.1.32-6.66-1.13-8.63,3.2-.15.33-1.74.36-1.85.1a20.62,20.62,0,0,1-2-6.21c-.06-.7,2.2-1.63,3.41-2.44a7.77,7.77,0,0,1,1-.5l-.87-4.21,4.89-1.89c-2.55-2-4.86-2.82-7.78-2a139.9,139.9,0,0,1-13.62,3.28c-1.1.21-2.4-.88-3.6-1.37a32.09,32.09,0,0,1,2.94-2.77c1.9-1.4,4.61-2.12,5.71-4,2.56-4.48,6.19-6.29,10.5-7.22l-.1-1-16.46,1.52a11.19,11.19,0,0,0,.58-1.59c.25-1.32.43-2.64.64-4-1.35-.14-2.85-.74-4-.3a13.62,13.62,0,0,0-3.51,2.57c-1-1.22-1.93-2.2-2.71-3.3a4.35,4.35,0,0,1-.82-2c-.4-4.57,1.88-7.65,5.83-8.68a9.66,9.66,0,0,0,4.12-2.67A10.82,10.82,0,0,1,701,682.1c2.91-.09,5-2.07,7.61-5.06h-5.1c-6.77.2-13.54.48-20.32.59a12.53,12.53,0,0,1-3.5-1Z"/><path class="cls-2" d="M918,876.58a50.33,50.33,0,0,1-1.68-5.08c-1-4.42-5.4-9.06-9.41-9-1.71,0-3.47,1.41-5,2.46a62.08,62.08,0,0,0-5.12,4.17c-1.11-4.07-.91-6.88,1-9.75,2.45-3.78,5.24-6.54,9.46-7.82,6.2-1.88,10-7,12.44-13.52.83-2.19,1.26-4.85,4.39-4.6.5,0,1.62-2.23,1.62-3.44,0-3.42,1.57-4.93,4.31-5.52,1.19-.25,2.33-.78,3.53-1,3.69-.67,6.44-2.53,7.52-6.84a4.68,4.68,0,0,1,1.35-2.61c4.28-2.77,3.85-7.78,4.93-12.14,1.25-5.08,2.88-10,4.33-15,2.91.71,5,1.35,7,1.68,3.33.52,5.52-1.18,6.29-4.86a47.18,47.18,0,0,0,1.07-7.39,2.86,2.86,0,0,1,2.49-3,69.9,69.9,0,0,1,25.64-2.69,14.91,14.91,0,0,1,6.7,2.54c3.82,2.54,7.9,2.72,12.06,2.5,2.83-.14,5.65-.64,8.47-1,3.89-.54,5.13-3,3.61-7.18-.66-1.79-1.37-3.54-2.26-5.82l17.18-17.5c-.55-1.08-2.06-2.74-2.11-4.45-.06-2,1.13-4.1,1.79-6.14,1.61-4.93,5.68-6.34,9.35-8.41,1.07-.61,1.77-2.06,3.14-3.74,5.31-1,5.76-1.57,5.83-9,3.61,3.39,6.55,1.51,9-1.55,2-2.57,4.44-3.08,7.26-3.38a14.43,14.43,0,0,0,5.45-2.25c2.34-1.41,4.52-3.16,6.28-4.42l5.44,8c-.13.08-.74.81-1.3.76-2.4-.21-3.65,1.37-3.55,3.59.36,8.83,1,17.64,1.59,26.45a3.58,3.58,0,0,0,1.43,2.44c6.39,3.94,8,11,9.35,18.13.21,1.15-1.3,3.15-2.45,4s-2.76.47-4.1.91-3.41.9-4,2.09c-.51.94.22,3.45,1.11,4.49,2.25,2.61,2.34,5.12,1.61,8.52-.49,2.3.55,5.07,1.11,7.57.71,3.23-.07,4.35-3,3.71-2.58-.56-5.13-1.37-7.7-2-2-.47-3.93-.21-4.47,2.22s0,4.43,2.78,5c2.31.43,3.38,2.12,3.79,5a11.27,11.27,0,0,0,3.07,6.38c2.32,2,2.68,4,2,5.88-3.68,1.87-7.19,2.95-9.9,5.22s-4.75,5.82-7,8.71c-3.48-2-6.7-4.15-10.13-5.75-5.54-2.58-8.43.14-7.64,6.88a11.09,11.09,0,0,1,.25,2.37,34.6,34.6,0,0,1-.66,3.49c-1.21-.85-2.79-1.4-3.55-2.6-1.14-1.82-1.58-4.17-2.55-6.15-3.69-7.5-17.73-12.44-25.28-7.69-4.25,2.67-9.27,3.8-13.62,6.31-3.52,2-6.57,5.1-10.21,8l4.43,11.87c-2.43,2-5,3.9-7.43,6.09a3.84,3.84,0,0,0-.91,2.87c.65,3.64.18,3.85-3.08,4.7-6.3,1.64-9.51-1.22-10.36-8.25-3.57,0-6.81-.1-10.05,0s-6.4-.27-8.39-3.87c-.25-.45-1.23-.54-1.87-.54-5.28,0-10.56.24-15.84.2-2.88,0-3.62,2.68-4.19,4.63-1,3.22-2.72,4.94-5.41,5-3.81.13-5.93,3-8.39,5.46a20.48,20.48,0,0,1-2.42,1.83,2.89,2.89,0,0,0,0,.83c1.76,6,1.75,6-2.75,10-1,.89-1.88,2-2.82,3Z"/><path class="cls-2" d="M1240.61,668.48a96.94,96.94,0,0,0-3.25,9.8,39.24,39.24,0,0,0-1.33,11c.25,3.77-1,5.82-3.43,8-3.47,3.06-7.08,6.16-9.79,10-1.25,1.78-1.1,5.51-.53,8.06.74,3.34-.43,4.94-2.8,5.59-3.7,1-7.52,1.58-10.81,2.23-.36,5-.65,10.32-1.14,15.57a3.25,3.25,0,0,1-3.16,3.32h-.3c-6.77.33-13.52,1-20.87,1.51-.18-3.17-.63-5.84-.4-8.44.25-3-.88-3.65-3.12-3.54-1.72.1-3.46,0-5.17.18-3.07.34-5-1.26-6.33-4.19-.32-.71-.61-1.44-1-2.14-1.91-3.8-3.45-4.08-6.46-1.34a29.52,29.52,0,0,1-4.24,3.21c-1.57,1-3.29,1.65-4.94,2.49s-3.26,1.7-4.67,2.44c-1.69-3.36-2.67-7.05-4.86-9.15s-5.64-2.65-8.78-4c-.17-1.91.06-3.65,2.63-4.37.82-.24,1.53-2.2,1.79-3.49.78-3.86,1.38-7.76,1.92-11.67.34-2.45.51-4.94.63-7.41.13-2.92-.28-6,.32-8.72a8.88,8.88,0,0,1,3.32-5.15c7-4.5,9.37-14.3,5-22a15.5,15.5,0,0,1-1.09-2c-1.38-3.52-.4-5.16,3-5.08a66.57,66.57,0,0,1,7.61.21c7.54.9,13.47-3,19-8,2.88-2.63,4-6,3.51-10.3a73.34,73.34,0,0,1-.07-9.14c13.64-3.56,27.17-4.22,39.84,3.45,5.3,3.21,9.91,7.86,14.76,12a4.57,4.57,0,0,1,1,2.36q2.14,10.26,4.23,20.55Z"/><path class="cls-2" d="M1044.07,345.23c-3.21,2.14-5.63,4.13-8.31,5.4-1.8.86-4,.49-6,1.08a11,11,0,0,0-4.7,2.5c-1.94,2-3.29,4.65-5.2,6.67-2.08,2.2-4.5,4-6.76,6l12,6.2c1.92-3.23,3.93-6.61,5.93-10,1.57-2.67,6-4.15,8.46-2.55q10.79,7,21.41,14.35a3.49,3.49,0,0,1,.69,3c-1.81,3.63-3.3,7.87-6,10.44-5.64,5.36-3.64,13.79.35,18.05,4.92,5.25,4.73,7.14-1.46,10.3-4.69,2.39-9.52,4.46-14.34,6.53-3.78,1.63-5.54,4.73-5.71,9.12a5.06,5.06,0,0,1-2.57,4.45c-5,3.46-9.44,7.72-11,14.42-1.33,5.66-5.51,7.15-9.5,9.1-.46.22-1,.36-1.69.63-.11-.88-.21-1.65-.3-2.45-4.18.38-8,1.18-10.66,5.12-.44.65-1.78.85-2.66.74-4.17-.49-7.5,1-9.43,5.22-1.75,3.88-5.44,2.57-8,4.17-.28.18-1.07-.49-1.53-.89-2.19-1.91-4.37-3.84-6.5-5.82-1.3-1.22-2.52-2.55-3.79-3.85-3.44,2.93-4.26,6.54-1.45,9.61,3,3.24,1.32,6.35.92,10.78a94.35,94.35,0,0,1-7.65-6c-2.18-2.08-4-4.5-6-6.77a30.76,30.76,0,0,0-2.85-3.08c-2.17-1.86-4.53-4.11-7.37-2.72-2.1,1-2.37,8.31-.75,11.21.59,1.06,1.48,1.91,2,3a3.41,3.41,0,0,1,.41,2.4,2.32,2.32,0,0,1-1.87,1.3,2.37,2.37,0,0,1-1.5-1.72c-.47-5.32-3-9.17-6-13.16-3.36-4.38-4.2-10.28-3.77-16.15.06-.75.59-2,1-2.08,3.26-.48,4-3.53,5.19-6.1,2.14-4.49,4.37-8.93,6.38-13.5,1.69-3.83,2.82-8,4.76-11.64a22.78,22.78,0,0,1,5.4-6.09c2.1-1.83,2.6-6.07.9-9.58-1.91-3.95-4.81-6.56-8.16-8.9-2.59-1.81-4.74-4.39-7.09-6.63-.46-.44-.84-1.06-1.36-1.32a15.53,15.53,0,0,1-6.48-5.88c-.91-1.46-3-2-5.53-3.53,0,2.87-.14,4.83,0,6.74.17,1.76-.12,3-1.59,3.89-2.48,1.58-3.37,4.3-3.91,7.32-1.31,7.24-2.73,14.45-4.14,21.67-1,5.35-4.28,8-9.66,7.92-.75-4.5-1.79-8.88,1.15-13.2,2.1-3.1,3.06-7,1.52-10.66-1.91-4.54-1-8.8-.11-13.51h4.36c-.69-9.33-1.36-18.42-2-27.78l-9.94,23.09c-3.72,0-4.53.83-3.49,5.36.74,3.23.07,5.1-2.31,6.76s-4.53,3.88-7,5.34a4.69,4.69,0,0,1-4.21-.09c-.54-.31-.36-2.81-.08-4.22.51-2.65,2.31-5.19.27-8.1a41.62,41.62,0,0,1-5.18,3.45c-2.54,1.19-3.42.22-2.9-2.81a11.77,11.77,0,0,1,.39-1.66c1.71-4.73.41-11.32,5.51-13.9,4.28-2.16,9.09-3,13.65-4.49a6,6,0,0,0,2.74-1.57c1.52-1.83,2.57-4.19,4.21-5.82,5.84-5.79,8.51-14,13-20.81a2.15,2.15,0,0,0,.43-.9c.22-1.5.38-3,.56-4.51-1.41.17-3.15-.21-4.18.59-6.1,4.74-13.3,5.34-20.19,7-3.75.89-7.59.42-10.46-3-.81-1-1-2.57-1.48-3.88a19.81,19.81,0,0,1,3.51-1.17,6.33,6.33,0,0,1,2.33.64c2.69.8,5.36,2.13,5.9-3,.16-1.62,2.08-3,3.12-4.51a10.89,10.89,0,0,0,1.87-4.53l-8.29,2V312.35c1.31-.85,2.62-1.65,3.88-2.53,3.62-2.52,3.61-3.88-.15-6.5,2-3.53,5.24-3.41,8.25-3.73,2.76-.3,7-3.82,7.45-6.8.58-3.65-2.45-2.8-3.74-3.72,2.07-2.55,4.54-5,6.25-7.91s2.54-6.27,3.76-9.44l-.75-.73c-2.42,1.93-4.77,4-7.28,5.73a16.32,16.32,0,0,1-3.94,1.49c0-1.67-.44-3.45,0-5,.91-3.43-.64-5.43-4.6-6.6a41.91,41.91,0,0,1-8.52-4,8.75,8.75,0,0,1-2.47-3c-2.28-3.58-2.27-5.66-.08-9.35-2.16-2.22-4.23-4-6.87-.53-.32.42-2.39,0-2.7-.59a69.1,69.1,0,0,1-3.53-8.65,2.58,2.58,0,0,1,1-2,8.11,8.11,0,0,1,3.18-1c4.11-.54,4-.48,3.14-5.29a32,32,0,0,1-.06-5.71l1.27-.45,8.27,12.74c0-4.88-.07-8.9,0-12.92a29.71,29.71,0,0,1,.72-6.38c.58-2.3,2-2.82,3.63-1,4.2,4.77,7.22,10.12,6.62,17.26-.15,1.79,0,3.62,0,5.44l1.22.21,4.55-11,.91.23a21.74,21.74,0,0,1-.27,4.11c-1,4-2.39,8-3.38,12-.3,1.22-.19,3.53.4,3.86a6.53,6.53,0,0,0,4.55.57c.71-.18,1.5-2,1.55-3.18.17-4.54.07-9.09.07-13.84h3.19l-4.06-8.15c2.72-.74,2.91-2.51,2.63-5.06a75.92,75.92,0,0,1-.12-10.23c.06-2.34,1-4,3.18-4.8,2.49-.92,4.87-2.25,7.28-3.4,2.36,3.57,7.93,4.11,10.68.92a3.22,3.22,0,0,0,.63-2.61c-1.79-3.55-3.8-7-5.73-10.41,2.78-1.77,3.26-7.37.61-11.5-.75-1.17-1.27-2.53-2.24-4.51,2.6.26,4.28.42,6,.61s3.16.38,4.95.6c-.25-2.3-.41-4.32-.71-6.3-.79-5.24-.07-6.15,4.83-5.55.81-3.55,1.57-7.17,2.49-10.74s2.18-7.12,4.43-8.66c2.84.75,4.94,1.18,6.95,1.9a6.72,6.72,0,0,1,2.57,1.9,19.06,19.06,0,0,1,1.84,3.15l2.89-3.51c4.19,2.71,8.68,4.84,13.82,3.17a20,20,0,0,0,3.39-1.49c2.94-1.65,5.71-2.4,8.69.19,2.43,2.1,5.11,1.49,7.2-.81,2.39-2.64,5.11-3,8.14-2.27a5.41,5.41,0,0,0,6.53-3c.33-.59,1-1.45,1.45-1.37,4.33.79,8.64,1.74,13.33,2.73-1,2.68-1.75,4.4-2.31,6.19-.78,2.55-1.22,4.91,1.11,7.09,1.64,1.55.15,7.06-2.42,9.66q-10.43,10.5-20.9,20.93c-4.11,4.07-8.59,7.74-12.3,12.21-1.81,2.17-2.52,5.7-3.22,8.76a2,2,0,0,0,2.73,2.45c2.48-.75,4.9-1.81,7.72-2.88-2.34,9.08-9.56,14.2-12.82,21.41a16.11,16.11,0,0,0,3.8,1.42,3.72,3.72,0,0,0,2.85-1,13.89,13.89,0,0,1,8.26-4.6,11.24,11.24,0,0,0,4.68-2.55c3-2.34,6.15-3.47,9.34-1.22,4.32,3,8.3,4.11,13.41,1.68,4.93-2.35,10-1.58,15,1.93,2.29,1.6,6.2.62,9.33.29,2.7-.29,5.32-1.36,8-2,7.24-1.79,10.94.1,14.55,7.38a24.89,24.89,0,0,1,2.63,15.13c-.36,2.22-2.1,4.25-3.46,6.14s-3.21,3.2-4.43,5.11c-1.76,2.79-3.11,5.44-2.17,9.59,1.11,4.92-1.67,9.34-4.25,13.39a10.6,10.6,0,0,0-1.38,3.56c-.53,2.65-.82,5.37-1.29,8-.67,3.75-1.8,6.85-5.48,8.57-4,1.86-5.35,5.95-5.65,10.83-.47,7.79-4.42,13.43-10.27,17.23-2.93,1.91-3.42,3.33-1,6.27S1041.33,341.85,1044.07,345.23Z"/><path class="cls-2" d="M960.57,739.51a55.33,55.33,0,0,0,5.55-2.22c.76-.4,1.24-1.48,1.84-2.26a8.67,8.67,0,0,0-2.18-1.46c-1.27-.37-2.76,0-3.87-.67-1.6-.89-2.9-2.44-4.42-3.55-1.34-1-3.41-2.86-4.11-2.38-3,2-6,1.21-9,.88a13.51,13.51,0,0,0-2.29.17c-.11.8-.26,1.54-.29,2.29-.11,2.61-.8,4.32-3.49,5s-5.48,2.34-8.19,3.59c-2.14,1-3.59.63-4.5-2.1a9.12,9.12,0,0,0-5.89-6c-.63-.23-1.11-1-1.67-1.53.48-.47.89-1.15,1.45-1.37,2.17-.88,3.43-2.36,3.13-5.1s-1.34-5-4.24-5.3a3.55,3.55,0,0,1-1.77-.34,4.26,4.26,0,0,1-1.51-2.23c-.08-.49.81-1.61,1.4-1.75a13.46,13.46,0,0,0,9.26-7.62,3.15,3.15,0,0,1,2.88-1.28c4.22,1.08,7.6-.17,10.35-3.87a9.89,9.89,0,0,1,7.53-4.43c4.9-.35,8.68-3.44,12.12-7.16,3.79-4.1,7.68-8.07,11.8-12.39-.86-4.18.9-8.13,3.3-11.75,1.26-1.89,1.13-3.22-.44-4.62a19.55,19.55,0,0,1-2.24-2.31,5.64,5.64,0,0,1,.4-8l0,0c3-3,3-5.38.64-8.86a11.5,11.5,0,0,1-1.6-4.86,54.82,54.82,0,0,1-.07-6.66c-3.27.72-6.41,1.51-9.58,2.1-4.26.78-2.4,6-4.75,8.32-2.31-1-3.92-4.32-6.83-2.31a28.91,28.91,0,0,1-2.79,2,16,16,0,0,1-4.92,1.75,24.1,24.1,0,0,1,9.77-14.79c5.5-3.89,9.2-9.06,11.54-16.42l-10.16-9c-1.52-1.33-3-2.7-4.55-4s-1.13-2.44.17-3.52c3.77-3.15,3.78-3.14,4.14-8.42,4.15-.28,8.36-.65,12.58-.79a2.89,2.89,0,0,1,2.35,1.4c2.11,6.65,7.17,8.54,12.47,10.09a33.59,33.59,0,0,0,3.58.65c1.64-5.33,2-5.56,7-4.76,2.3.36,4.58,1.17,6.88,1.26,7,.26,13.67-.77,19-6.66a6.25,6.25,0,0,1,1.2-.83c3.28,5.23,6.44,10.37,9.69,15.45,1.48,2.31,2.06,4.51.61,7.19s-.77,4.71,1.52,6.39a18,18,0,0,1,7.74,16.11c-2.9-1.18-5.8-2.56-8.8-3.47-.86-.25-2.25.59-3,1.39a31.45,31.45,0,0,0-4.07,5.26,20.47,20.47,0,0,0-2.56,5.63c-.63,2.59.73,3.85,3,4.41a43.29,43.29,0,0,1,6,2.43c-.94,2.14-1.82,4.33-2.85,6.42-.79,1.58-1.81,3-2.66,4.55-1.33,2.39-.8,3.78,1.76,4.27a8.88,8.88,0,0,1,2.39,1.37,10.71,10.71,0,0,1-2,2.2c-2.13,1.3-4.46,2.23-6.55,3.61-3.9,2.57-4,6,0,8.56a14.59,14.59,0,0,0,5.87,2c3,.43,5.84,3.86,5.17,7.07-.13.62-1.23,1.3-1.95,1.42-5.64.89-7.3,3.28-6.05,9.48,1.19,5.84,2.48,11.68,4.1,17.39.3,1,2.54,2.23,3.65,2,4.18-.92,6.63.82,8.51,4.93.8,1.74,2.67,2.85,3.88,4.08-1.53,2.14-3.84,4.42-5,7.28s-1.15,6.3-1.73,10c-8.13,3-15.18,9.39-22.52,15.24a6.65,6.65,0,0,1-4.66,1.29,76.44,76.44,0,0,1-11.88-2.48c-3.11-.93-5-3.54-6.05-7.07a13.57,13.57,0,0,0-6.74-8.39c-2.39-1.29-4.49-.88-6.27,1.5a4.59,4.59,0,0,1-2.11,1.46c-1.25.44-2.58.59-3.86.92C963.83,747.06,963.83,747.06,960.57,739.51Z"/><path class="cls-2" d="M1040.23,426.85c3.65-1.62,8-3.46,12.27-5.5a35.17,35.17,0,0,0,7-4.06c4.06-3.29,4.19-7.15.76-11.25a35.38,35.38,0,0,1-3.82-4.81c-2.21-3.85-1.59-6.67,1.09-10.06s5.16-7.42,7.92-11.45a47.09,47.09,0,0,1,3.1,5.44c2.63,6.19,6.29,11.08,12.16,13.65a3.44,3.44,0,0,1,1.41,2.41,66.44,66.44,0,0,0,4.55,16.48c1.49,3.74,1.48,8.47,1.35,12.72a23.79,23.79,0,0,0,3.89,13.63c1.87,3,2.5,6.34,3.18,10,1.32,7,1.15,15.23,8.06,19.57.78.5,1.17,2.06,1.45,3.22,1.17,4.69,3.86,7.34,8.15,7.87,7.17.89,12.49,5.61,16.78,11.38,5.5,7.4,10.29,15.48,15.2,23.4,1.23,2,2.25,3.46,4.65,3.52,1.31,0,2.61,1.18,3.78,1.76-1.52,3-3.25,5.21-3.88,7.8-.89,3.7.51,7.15,2.59,10.16a80.71,80.71,0,0,1,10.38,21.89c-1.72,2.3-3.18,4.33-4.73,6.28-.4.51-1.06,1.15-1.56,1.11-6.61-.56-12.52,2.23-18.47,4.78-1.63.7-3,1-4.42-.58s-3.18-1.88-4.35.76c-1.07,2.42-2.89,2.94-5.24,3.62-3.25.93-6.08,3.7-9.07,5.7a3.06,3.06,0,0,0-.86,1c-3.54,6-8.29,7.77-14.62,6.29-5.72-1.33-10.36-3.47-13.62-9.48-1.93-3.58-5.41-6.12-8.72-9.7,2.13-5.32-.71-10.4-4-15.37a7,7,0,0,1-.5-7.64,13.74,13.74,0,0,0,.77-1.86c2.46-6.81,1-9.81-5.4-10.91-2.52-.43-4.48-1-5.63-4.11-.71-1.92-2.67-3.35-4.26-4.73-1.42-1.25-3.21-2-4.64-3.22a20,20,0,0,1-2.56-3.38c1-.78,2-1.9,3.08-2.26,4.1-1.29,5.44-4.75,6-8.92.36-2.92.24-5.95.89-8.77.75-3.26,2.2-6.22,6.62-6a35.68,35.68,0,0,0-1.91-4.77c-2.48-4.29-5.38-8.32-7.55-12.8a27.68,27.68,0,0,1-2.55-9.56c-.52-6.06-2.38-8.35-7.92-8-2.11.12-2.32-.93-1.7-2.66,1.09-3.06,2.39-6,3.44-9.1,1.75-5.2.78-7.46-3.93-9.22-2.28-.85-3-2.48-3.13-5.12A83,83,0,0,0,1040.23,426.85Z"/><path class="cls-2" d="M1210.64,755.29l21.16-2.57c-.27,6.23-.5,12.61-.83,19-.11,2-1.18,3-3,3.56-5.86,1.88-11.2,4.87-14.67,10.82a59.07,59.07,0,0,0-2.72,6.4,23.4,23.4,0,0,1-2.65-.2c-3.38-.43-6,1-7.73,4.22-1.58,2.85-3.54,4.51-6.73,4a3.92,3.92,0,0,0-2.84.81c-3.85,3.09-7.65,6.26-11.35,9.57-1.62,1.44-3.09,1.93-5,.79-4-2.45-8.09-4.73-12-7.31a5,5,0,0,0-4.78-.81q-7,2.28-14.13,3.93c-5.28,1.24-10.09,3.33-13.63,8-5.17-3.52-10.06-7.45-16.67-3.49.77,2,1.35,3.93,2.19,5.68a4,4,0,0,1-.92,5.15c-1.64,1.5-3.48,2.71-5.23,4.06-1.41,1.08-2.54.73-3.76-.54-3-3.07-6.18-5.46-10.53-5.27-1.74.07-3.86-4-3.47-6.76.5-3.64.15-6.63-2.82-8.92a5.9,5.9,0,0,1-2-3.7c-.41-4.08-1.65-7.25-5.35-8.85,2.42.62,4.84,1.3,7.28,1.83,5.29,1.16,8-1.91,6.37-7.66-1-3.62-1.56-6.94-.16-10.58.34-.91-.35-2.55-.93-3.6a32.6,32.6,0,0,0-3-4,68.47,68.47,0,0,0,6.94-1.47,5.55,5.55,0,0,0,3.9-5.84c-.28-9.41-3.57-17.1-10.56-22.63a4.48,4.48,0,0,1-1.54-2.62c-.33-6.7-.56-13.41-.59-20.12,0-1,1.11-2.91,1.8-3,2.78-.22,3.74-2.37,4.1-4.69.57-3.71,1.59-6.33,5.43-7,1.19-.18,2.2-2.33,3.13-3.72a38.33,38.33,0,0,0,2-3.81l1,.32c0,3.1-.31,6.25.11,9.28.26,1.89,1.29,4.6,2.55,5.1s3.23-1.32,4.85-2.21a2.83,2.83,0,0,0,1-1.27c2-4.25,4.69-7,9.53-6.1.93.17,2.51-1.69,3.24-3a12.23,12.23,0,0,1,9.52-6.45c-.19,3.12-.21,6-.58,8.89-.5,3.81-1.26,7.57-1.94,11.35-.12.62-.29,1.59-.66,1.74-5.15,2.23-3.4,7.18-3.93,11.38,1.87.24,3.45.46,5,.65,4.09.51,6.65,2.82,7.62,7.48.32,1.51,1.75,2.67,2.33,4.16a15.94,15.94,0,0,1,1.41,5.55,21.07,21.07,0,0,1-1.21,5.6c-.76,2.83.15,4.64,2.71,4.77s3.77,1.54,4.3,4.25,1.53,4,4.32,2.49c1.09-.57,3.17.11,4.33,1,4.26,3.23,4.19,3.35,7.54-1l.67,1.15c1.37,2.26,2.93,3.82,5.56,2.25,3-1.79,4.29-4.53,3.55-7.82-1.16-5.13-1.18-5.31,3.45-6.07,4.45-.73,9.13-2.1,13.4-1.26C1201.12,747.36,1207.18,749.64,1210.64,755.29Z"/><path class="cls-2" d="M1062.39,494.29c-4.48,3.74-5.85,8.69-5.92,14.28-.09,6.63-.46,7.23-6,9.67a5.67,5.67,0,0,0-1.42,9.35c1.72,1.57,3.89,2.52,5.56,4.14,2,2,3.5,4.57,5.56,6.42a15.4,15.4,0,0,0,6.14,3.66c5,1.23,5.83,2.37,3.29,7.45-2.31,4.63-1.9,8.76,1,12.6,4,5.28,3.85,10.56,1.28,16.64-2.31,5.46-2,11.54-1.09,17.46.31,2.12.65,4.24,1,6.51-2.63.36-5,.69-7.41,1a7.16,7.16,0,0,0-6.51,6.14,18.68,18.68,0,0,1-6.4,10.45c-1.31,1.15-1.93,3.27-3.07,5.31-3.37.61-5.69-5.61-9.91-2.76-2-4.06-2.89-9-7.33-10.94-.35-.15-.58-2-.25-2.58,1.8-3.39.81-6.35-.85-9.26a32.59,32.59,0,0,0-3.3-5.3c-4.34-5-5.39-11.45-6.74-17.78a6.67,6.67,0,0,1,.53-3.58,39.28,39.28,0,0,0,2.56-20c-.38-3-.06-6.11-.06-9.51,3.19-.21,5.76-1.51,6.23-5.82l-2.84-2.26c1.55-1.77,3-3.51,4.5-5.09,2.89-3,2.83-4.53,0-6.86-3.17,2.27-6.29,4.27-9.16,6.67-1.32,1.11-2.16,3-3.15,4.52-1.11,1.75-2.27,2.29-3.58.32-1-1.57-2.74-3-.39-5.08,3-2.69,3-5.91-.24-9.12l-3.28,6.23h-3.33c-.44-2.37-.94-4.76-1.33-7.17a77,77,0,0,0-8.07-23.77,9.11,9.11,0,0,1-1-4.09c0-3.07.46-6.12.63-9.19.14-2.67,1.36-4.33,3.07-6.18a26.92,26.92,0,0,0,4.91-8.26c.72-1.81,1.27-3,3-3.6a61.72,61.72,0,0,0,6.49-2.9,14.6,14.6,0,0,0,8.27-9.71c1.88-6.23,5.72-10.85,11.42-13.26a4.19,4.19,0,0,0,1.67-2.5c.47-1.59.59-3.3,1.47-5,.13,1.5.36,3,.36,4.51,0,5.17.91,6.9,5.17,8.24,2.58.82,3,2.21,2,4.73a102.68,102.68,0,0,0-3.5,9.79c-1.2,4.46.28,6.56,4.38,6.53,2.64,0,5,.53,4.9,4-.11,8.8,4.8,15,8.67,21.67C1061,492.05,1061.63,493,1062.39,494.29Z"/><path class="cls-2" d="M814,468.41c1-.17,2.06-.74,2.92-.47a15.1,15.1,0,0,0,13.47-2c1.37-.91,2.37-3,3-4.78,1.71-5,3-10.1,4.71-15.09.87-2.63,6.3-5.57,8.87-5.15,4.68.77,6.39-.69,7.21-4.58a9.56,9.56,0,0,1,.59-1.57c2-5.12,2-5.12,7.16-4.77,3.17.21,6.12.29,8.57-3,1.89-2.51,9-1.93,11.72.37,1,.88,2.1,1.74,3.85,3.19a46.7,46.7,0,0,1,.79-6,14.68,14.68,0,0,1,1.84-3.28c.62,1.09,1.78,2.21,1.75,3.28-.1,3.05.73,5,3.45,5.9,2.45.81,2.8,3.18,1.92,5.24-1.52,3.54-.38,6.45,1.16,9.27,3.22,5.93,6.56,11.78,9.94,17.59,1.71,2.94,2.51,6,1.4,9.36-.35,1.06-1.46,1.79-2.13,2.74s-1.08,1.84-1.62,2.76c.82.43,1.74,1.35,2.44,1.18,3-.71,5.84-1.75,9.23-2.83,1.2,8.34,2.87,16.45,3.4,24.66.57,8.84-3.74,13.79-11.52,14.85-1.11.15-2.23.18-3.34.28-2.79.26-4.46,1.53-4.53,5.1-.07,4.14-2.44,7.17-7.61,10.67-1.62-3.86-9.42-8.66-13.19-8.05a8.51,8.51,0,0,0-2,.82l-8.94,4.06c-.4-3-.61-5.13-1-7.22-.69-3.76-2.51-6.45-6-7.26-2.4-.56-2.92-2.31-3.39-4.85a52.67,52.67,0,0,0-3.5-11.5c-1.55-3.52-5.35-3.08-8.44-1.54-5.31,2.64-4.61,7.37-4.59,12.08,0,2.6,0,4.61-3.28,4.68-1,0-2,2.84-3.22,4.78a4,4,0,0,1-1.38-1.31c-1.07-1.93-2.71-2.47-4.18-1.51-3.88,2.52-6.31.39-8.48-2.84-1.64-2.44-3.58-4-6.8-3.38,1.67-6.14-3.32-8.18-5.49-11.93a86.22,86.22,0,0,0-5.11-7.17l-.86.67a9.34,9.34,0,0,0,1.57-2.58c.74-3.48,3.11-3.9,5.44-3.34,4.92,1.2,8.41-1.73,11.85-4.71,2.15-1.87,1.69-3.45-.81-4.77s-4.75-2.83-7.12-4.26Z"/><path class="cls-2" d="M1137.08,686.07a15.81,15.81,0,0,0-12,8.14c-.59,1-2.46,1.61-3.71,1.56-3-.14-5.37.16-6.68,4-.76,2.27-2.72,4-4.51,6.56a14.08,14.08,0,0,1-.75-2.55c-.29-7.44-1.24-15,3.24-21.57a23.94,23.94,0,0,0,2.41-4.73c1.11-2.78.79-5-1.57-7.17-3.76-3.42-7.23-7.25-10.71-11a9.36,9.36,0,0,1-2.3-3.94,10.35,10.35,0,0,0-6.51-7.86,25.8,25.8,0,0,1-3.6-2.25,44.32,44.32,0,0,0,2.78-3.75c2.16-3.59,1.23-6.85-2.52-7.82-2.73-.71-5.62-.63-8.44-.91l-1.74-.16c-.22-.32-.45-.63-.67-.94a27.1,27.1,0,0,0,2.53-2c3.27-3.28,4.07-7.42,3.28-12.12-.45-2.68-.52-5.46-1.2-8a6.54,6.54,0,0,0-2.57-3.75,49.44,49.44,0,0,0-7.12-3c-.63-7.85-2.92-15.8.21-23.87a11.75,11.75,0,0,1,7.55,6.35c4.11,9.32,11.57,11.18,19.73,12.14,4.81.56,8.44-1.09,11.46-5.24a38.09,38.09,0,0,1,5.42-5.93c1.22-1.1,3-2.46,4.28-2.23,4.25.78,6.29-2,8.11-5.81,1.45,3.2,3.56,3,5.81,2.17,4.24-1.52,8.42-3.27,12.73-4.47,3.31-.92,6.71-1.29,9.75,1.63,1,1,2.83,1.19,4.31,1.38,3.84.48,5.87,3,7.07,6.92,1.5,4.89,2.12,10.21,5.59,14.2,1,1.2-.35,7.89-1.66,8.78-4.77,3.25-7.79,8.22-10.61,13.38-2.09,3.83-1.22,6.06,2.61,7.35,3.57,1.2,7.07,2.61,11.17,4.15-.93,1.76-1.43,3.45-2.45,4.5-4.48,4.59-9.39,8.21-15.9,7.75-3.34-.24-6.7-.15-10-.13-4.32,0-6.38,2.77-5.5,7.47a15,15,0,0,0,1.59,4.38c3.79,6.67,2.15,14.23-4.13,17.72C1137.81,677.61,1137.32,681.63,1137.08,686.07Z"/><path class="cls-2" d="M1024.72,657.89c3-4.11,7.15-6.89,5.88-12.6-.63-2.86-3.38-4.24-9-5.07,0-5,5.88-5.14,6.1-10.83,2.79,1.87,4.86,3.3,7,4.65.92.59,2.2,1.7,2.82,1.37.86-.45,1.53-2,1.8-3.14.49-2.16.63-4.41,1-7a70.31,70.31,0,0,0,6.61,3.17c2.82,1,4.34-.12,5.31-3.27a7.11,7.11,0,0,1,1.72-3c3.2-3,5.74-6.44,6.72-11.09a5.27,5.27,0,0,1,4.24-4.29c5.55-1.51,10.86-.42,16.2,1.91.49,3.23,1.05,6.68,1.53,10.14a9.7,9.7,0,0,1-3.13,9.07,11.31,11.31,0,0,0-2.23,2.3c-.6,1-1.41,2.44-1.12,3.21a4,4,0,0,0,2.72,2.15c2.59.48,5.25.45,7.86.79a50.23,50.23,0,0,1,5.26,1.25c-1.38,1.8-2.12,3-3,3.94-2,2.1-2.33,4.75.08,6.19,5,3,7.92,7.65,10.89,12.92,2.62,4.64,7,8.11,10.93,11.7,1.86,1.7,2,3.08,1,5.14-2,3.9-5.18,7.15-5.27,12.1-3.9,1.48-4.84,6.62-7.77,8.56-2.58,1.71-5,3-6.78,7.22-1.12-2.57-1.78-4.42-2.7-6.1-.69-1.26-1.54-2.9-2.62-3.25-.8-.26-2.08,1.24-3.13,2-3.73,2.68-6.77,7-11.93,6.26-2.76-.39-4.52,1.41-6.26,3.46-3.26,3.85-4,3.76-6.71-.36a5.73,5.73,0,0,0-1.19-1.53,18.2,18.2,0,0,0-2.59-1.26,16.45,16.45,0,0,0-.82,3,11.59,11.59,0,0,0,.34,2.69c.92,6.09.83,6.08-4.28,8.39-1.25.56-2.14,2.16-3.33,3.43a30.29,30.29,0,0,1-4.85-.37,3.6,3.6,0,0,1-2.32-1.85c-2.22-5.82-6-8-11.46-6.39-1.51-5.7-3.06-11.07-4.33-16.54-.94-4,0-5.32,3.77-5.82s4.7-2.09,4.12-6.12c-.9-6.24-3.13-8.32-8.94-9-1.68-.2-3.26-1.42-5.66-2.52,1.76-1.23,2.78-2,3.89-2.69,1.62-.93,3.33-1.68,5-2.6,2-1.12,3.77-2.58,3.54-5.4S1028,657.89,1024.72,657.89Z"/><path class="cls-2" d="M858.4,254.58c-3.49.94-4.4,3.14-3.5,6.71.78,3.09,2.43,7.07,1.39,9.32a34.41,34.41,0,0,1-8.75,11.45c-3.7,3.14-6.93,6.08-8.12,11.36-.24,1.07-2.18,2.72-2.72,2.46-2.06-1-.82-2.66-.23-4.22,1.12-3,1.93-6.12,3.15-9a32,32,0,0,1,3.49-6.19c1.33-1.84,3.35-3.12,4.43-5.09.93-1.68,1.86-4.46,1.24-5.93C846.47,260,848,255,849,249.81c.7-3.52,1.88-7,2.1-10.55.32-5.32-2.55-9.14-5.84-12,.34-1.9.33-3.64,1-4.93a6.05,6.05,0,0,1,3-2.67c3.12-1.22,5.79-2.8,6.56-6.78.28-1.42.52-2.85.92-5.12a43.14,43.14,0,0,0,3.14,4.22,8.74,8.74,0,0,0,2.5,1.34c.08-1,.5-2.17.16-2.92-.94-2.09-.41-3.25,1.2-4.52,4-3.17,4.2-5.16.69-8.89a7.85,7.85,0,0,1-2.19-7.3c.35-2,.47-4.06.82-6.06.84-4.74,3.13-7.79,7.45-9.32,8.38-3,15.8-8.19,22.89-13.9,1.55-1.25,2.54-3.39,3.78-5.13a23.45,23.45,0,0,1,1.65-2.42c1.9-2.14,3.46-2,4.31.94,2.42,8.18,4.08,13.7-2.8,21.2l6-.91c-.94,6-2.65,7.72-7.4,7.53-2.06-.08-3.42.75-3.65,3.09-.28,2.92-.23,5.89-.59,8.79a8.1,8.1,0,0,1-1.58,3.07c-.33.5-1.3.69-1.38,1.15-.75,4.35-4.17,4.33-6.87,5.62-1,.46-1.63,1.79-2.44,2.71-1.15,1.32-2.13,3-3.5,3.89-2.91,2-6,3.68-9.07,5.39s-4.32,4.86-4.87,8.19c-1.3,8-5.36,14.6-8.25,21.79a7,7,0,0,0-.22,3.77A49,49,0,0,0,858.4,254.58Z"/><path class="cls-2" d="M1164.39,757.55c-2.48-2.65-5.21-4.8-8.82-3.2-2.28-5.41-2.72-5.81-7-6.72.43-4.15.86-8.31,1.34-12.93l13.79-8c1.82,2.31,3.5,5.85,6.1,7.33s6.26,1,9.58,1.39c.25,2.69.52,5.59.81,8.73-.55.25-1.17.57-1.81.83-4.43,1.77-4.93,3.21-3.59,8.18a5.91,5.91,0,0,1-.82,4.39c-1.39,1.73-2.17-.29-3-1.35C1168.74,753.29,1167.71,753.48,1164.39,757.55Z"/><path class="cls-2" d="M943.75,532.75c.78-1.56,1-2.62,1.67-3.26a13.25,13.25,0,0,0,3.82-11.2,2.59,2.59,0,0,1,1-1.9c3.6-2.32,5.15-6.21,6.57-10.28s4.12-5.73,8.79-5.16a14.35,14.35,0,0,0,2,11.4c.27.43-.44,1.78-.88,2.57-.64,1.13-2.05,2.11-2.1,3.21-.28,6-4.83,8.56-7.8,12.34a3.57,3.57,0,0,1-4.91,1.09c-1.25-.61-3,0-4.5.19A29.13,29.13,0,0,0,943.75,532.75Z"/><path class="cls-2" d="M928.36,388.94c4.14.05,6.4,2.7,7.14,6.76.51,2.84,1.63,5.54,2,8.39a20.24,20.24,0,0,1,.08,7.6c-1,4-3.23,4.52-6.6,2.55s-5.53-4.12-5.13-8.8c.12-1.46-1.12-3.07-1.74-4.61a10.17,10.17,0,0,1,1.18-9.92C926.15,389.72,927.82,389.29,928.36,388.94Z"/><path class="cls-2" d="M895.54,284.86a5.66,5.66,0,0,0,.9.32c1.24.22,2.49.42,3.73.63-1,2-1.83,4-2.9,5.91a8.3,8.3,0,0,1-1.95,1.79c-.52.47-1.12,1.39-1.55,1.31a3,3,0,0,1-2-1.48,45.79,45.79,0,0,1-1.18-4.89c-.24-1-.37-2.26-1-2.77a11.48,11.48,0,0,1-4-7.65c-.07-.52-1.61-.72-2.42-1.19a23.39,23.39,0,0,1-3.35-2.34c-.09-.07.72-2.09,1.1-2.08a14.56,14.56,0,0,1,4.07.86c1.58.5,3.09,1.55,4.68,1.7,5.09.49,5.69,1.06,5.78,6.73C895.48,282.72,895.48,283.73,895.54,284.86Z"/><path class="cls-2" d="M886.27,301.56c-.13,6.11-4.87,13.49-8.8,15.06a10.48,10.48,0,0,0-3.55,2.44c-2.48,2.56-5.13,4.4-8.71,3.63-.22,1.56-.4,2.89-.58,4.22l-1.15.38q-2.29-5-4.58-10l.74-1.27h6.81a10.43,10.43,0,0,0,8.82-4.19C878.33,308.12,882.18,305.29,886.27,301.56Z"/><path class="cls-2" d="M733.14,596.87c.2,4-1.14,5.17-3.47,4.41a16.65,16.65,0,0,1-4.77-2.73,50.08,50.08,0,0,1-5.88-5.3c-.72-.78-.89-2.23-1.3-3.37,1-.2,2.08-.84,2.89-.52a106,106,0,0,1,10.92,4.93C732.48,594.81,732.93,596.52,733.14,596.87Z"/><path class="cls-2" d="M895.48,352.29c.15.84.63,1.82.38,2.43-1.2,3-2.16,6.37-4.06,8.74-1.34,1.68-3.13.13-3.11-2.45C888.7,357,891.18,353.72,895.48,352.29Z"/></g><g id="Слой_3" data-name="Слой 3"><circle class="cls-3" cx="1040.03" cy="381.72" r="7.15"/><circle class="cls-3" cx="1056.88" cy="553.04" r="7.15"/><circle class="cls-3" cx="1056.88" cy="586.24" r="7.15"/><circle class="cls-3" cx="1165.39" cy="743.51" r="7.15"/><circle class="cls-3" cx="1172.54" cy="796.12" r="7.15"/><circle class="cls-3" cx="1126.07" cy="755.25" r="7.15"/><circle class="cls-3" cx="1111.78" cy="775.69" r="7.15"/><circle class="cls-3" cx="1042.58" cy="765.47" r="7.15"/><circle class="cls-3" cx="1060.97" cy="765.47" r="7.15"/><circle class="cls-3" cx="992.8" cy="825.72" r="7.15"/><circle class="cls-3" cx="990.24" cy="842.57" r="7.15"/></g></svg>